<svg xmlns="http://www.w3.org/2000/svg" xmlns:xlink="http://www.w3.org/1999/xlink" viewBox="0 0 500 500"><defs><clipPath id="freepik--clip-path--inject-144"><polygon points="206.18 282.92 107.92 226.19 245.31 146.86 287.59 171.27 288.16 232.62 219.8 272.01 212.1 274.85 206.18 282.92" style="fill:none"></polygon></clipPath></defs><g id="freepik--Floor--inject-144"><path id="freepik--floor--inject-144" d="M419.87,210c-94.38-63.41-247.4-63.41-341.78,0s-94.38,166.22,0,229.63,247.4,63.4,341.78,0S514.25,273.43,419.87,210Z" style="fill:#f0f0f0"></path></g><g id="freepik--Shadows--inject-144"><path id="freepik--Shadow--inject-144" d="M300.85,437.81c-.2.12-10.6,4.14-10.6,4.14l-2.7,4.65,9.56,8.27s8.9-.1,8.84.55,7.41,6.77,7.41,6.77l9.9,2.91,8.13-5.54,9.81-2.83,9.43-10.13L344.78,439Z" style="fill:#e0e0e0"></path><ellipse id="freepik--shadow--inject-144" cx="424.18" cy="367.45" rx="39.33" ry="24.61" style="fill:#e0e0e0"></ellipse><ellipse id="freepik--shadow--inject-144" cx="352.84" cy="212.31" rx="39.33" ry="22.71" style="fill:#e0e0e0"></ellipse><polygon id="freepik--shadow--inject-144" points="76.32 332.92 112.88 354.03 121.01 349.34 202.7 396.5 194 401.01 259.12 438.46 291.61 419.69 299.74 424.38 393.16 370.44 385.04 365.75 417.54 346.99 234.74 241.46 76.32 332.92" style="fill:#e0e0e0"></polygon><polygon id="freepik--shadow--inject-144" points="85.63 317.81 78.01 323.54 72.26 333.26 65.9 332.47 66.73 334.28 61.06 341.57 53.09 344.35 47.89 350.95 36.65 350.95 33.87 347.4 25.51 346.99 12.14 336.78 18.98 327.5 31.09 321.73 19.94 318.57 12.7 311.98 10.01 302.88 22.75 294.67 38.8 293.77 84.45 296.73 85.63 317.81" style="fill:#e0e0e0"></polygon></g><g id="freepik--Clouds--inject-144"><g id="freepik--clouds--inject-144"><path d="M99.32,66.5,91,71.31a10.32,10.32,0,0,0,.07-1.1V67.79c0-4.3-3-6-6.74-3.89a13,13,0,0,0-4,3.86c-.61-5.4-4.85-7.42-10-4.44-5.57,3.21-10.08,11-10.08,17.47V84.4a9.61,9.61,0,0,0,.85,4.19l-6.93,4a8.27,8.27,0,0,0-3.74,6.48c0,2.38,1.68,3.35,3.74,2.16l45.2-26.1a8.24,8.24,0,0,0,3.74-6.47C103.06,66.27,101.39,65.3,99.32,66.5Z" style="fill:#ebebeb"></path><path d="M155.65,77.32l-4.6,1.77V69c0-8-6.41-10-13.36-5.95h0c-7,4-12.6,13.79-12.6,21.83v1.47c-1.58-.63-3.62-.39-5.85.9h0c-5,2.89-9.07,9.92-9.07,15.7v.67l-6.41,3.7a13.21,13.21,0,0,0-6,10.35c0,3.8,2.67,5.35,6,3.44l51.89-30a13.18,13.18,0,0,0,6-10.34C161.62,77,159,75.42,155.65,77.32Z" style="fill:#ebebeb"></path></g></g><g id="freepik--Car--inject-144"><g id="freepik--4x4--inject-144"><g id="freepik--percentage-box--inject-144"><path d="M313.55,214.79l7.84-4.55a1.8,1.8,0,0,1,1.83-.18l1.84,1.1a1.79,1.79,0,0,1,.77,1.67v18.81a5.7,5.7,0,0,1-2.58,4.46l-7.84,4.55a1.81,1.81,0,0,1-1.82.18c-.46-.27-1.39-.84-1.86-1.1a1.81,1.81,0,0,1-.76-1.67V219.25A5.69,5.69,0,0,1,313.55,214.79Z" style="fill:#37474f"></path><path d="M311,219.24v18.82a1.81,1.81,0,0,0,.76,1.67c.45.25,1.16.69,1.81,1.07a1.85,1.85,0,0,1-.7-1.64V220.35a5.21,5.21,0,0,1,.76-2.53l-1.87-1.11A5.18,5.18,0,0,0,311,219.24Z" style="fill:#263238"></path><path d="M323.25,236.1l-7.84,4.55c-1.42.82-2.57.15-2.57-1.49V220.35a5.71,5.71,0,0,1,2.57-4.46l7.84-4.55c1.42-.82,2.58-.15,2.58,1.49v18.81A5.7,5.7,0,0,1,323.25,236.1Z" style="fill:#455a64"></path></g><path d="M308.63,254.3a.65.65,0,0,1-.32-1.22l9.92-5.72a.65.65,0,0,0,.32-.57v-20.6a.65.65,0,0,1,1.3,0v20.6a1.94,1.94,0,0,1-1,1.69L309,254.21A.66.66,0,0,1,308.63,254.3Z" style="fill:#263238"></path><path d="M93.63,212.3a3.74,3.74,0,0,0,1.22-2.44c.19-1.29.43-2.59.71-3.89a2.56,2.56,0,0,0-.14-1.9l-.39-.23c-.36-.21-.4-1.07-.07-2l2.46-7.1c.36-1.05,1-1.83,1.53-1.74s1.23-.67,1.72-1.67c.6-1.24,1.24-2.45,1.9-3.63a3.26,3.26,0,0,0,.51-2.59,2.74,2.74,0,0,1,.64-2.42l4.27-5.74c.53-.71,1.13-1,1.48-.84l.74.43a2.2,2.2,0,0,0,1.18-.7c.84-.85,1.7-1.66,2.58-2.41a3.75,3.75,0,0,0,1.31-2.42,2.78,2.78,0,0,1,1.32-2.11l4.92-2.84a1,1,0,0,1,1-.11c.21.11,2.42,1.39,2.42,1.39a17.28,17.28,0,0,1,1.8-.35,2.45,2.45,0,0,0,1.75-1.59,1.66,1.66,0,0,1,1.65-1.23l4.26.82a.85.85,0,0,1,.28.1c.43.26,21.05,12.16,21.13,12.21a1.18,1.18,0,0,1,.45,1.27l5.24,3a1,1,0,0,1,.34.37l2.46,4.26a2.26,2.26,0,0,1-.19,2.29,3.22,3.22,0,0,0-.4,2.56,29.44,29.44,0,0,1,.71,3.07s1.58.92,1.74,1a1.41,1.41,0,0,1,.45,1.23v6.56a2.93,2.93,0,0,1-1,2.32,3.7,3.7,0,0,0-1.2,2.43c-.19,1.3-.42,2.61-.7,3.92a2.64,2.64,0,0,0,.13,1.91l.36.21c.36.21.4,1.06.06,2l-2.46,7.1c-.36,1-1,1.84-1.48,1.75s-1.19.68-1.68,1.68c-.61,1.27-1.26,2.5-1.94,3.71a3.33,3.33,0,0,0-.53,2.54c.26.46,0,1.51-.67,2.37l-4.26,5.74c-.54.72-1.15,1.07-1.47.88l-.64-.37a2.18,2.18,0,0,0-1.22.72c-.87.89-1.76,1.72-2.66,2.5a3.62,3.62,0,0,0-1.3,2.31,2.71,2.71,0,0,1-1.33,2l-4.92,2.84a1.08,1.08,0,0,1-1,.14l-2.2-1.27a17.67,17.67,0,0,1-2.07.42,2.31,2.31,0,0,0-1.72,1.47,1.56,1.56,0,0,1-1.61,1.13l-4.26-.82a.83.83,0,0,1-.29-.11l-21.13-12.2A1.14,1.14,0,0,1,103,239l-5.2-3a1,1,0,0,1-.37-.39L95,231.34a2.22,2.22,0,0,1,.17-2.26,3.25,3.25,0,0,0,.39-2.53,27.84,27.84,0,0,1-.7-3.11v0l-1.7-1c-.28-.15-.46-.6-.46-1.23v-6.56A2.93,2.93,0,0,1,93.63,212.3Z" style="fill:#37474f"></path><path d="M113.78,233.4v-6.56a2.93,2.93,0,0,1,1-2.33,3.74,3.74,0,0,0,1.22-2.44c.19-1.29.43-2.59.71-3.89.23-1.06.07-2-.4-2.08s-.56-1-.2-2.08l2.46-7.1c.37-1,1-1.83,1.53-1.74s1.24-.67,1.73-1.67c.6-1.24,1.23-2.44,1.9-3.63a3.34,3.34,0,0,0,.51-2.59,2.74,2.74,0,0,1,.64-2.42l4.26-5.74c.63-.85,1.37-1.15,1.65-.67s1.06.27,1.75-.43c.85-.86,1.71-1.67,2.59-2.42a3.78,3.78,0,0,0,1.3-2.42,2.78,2.78,0,0,1,1.32-2.11l4.92-2.84c.73-.42,1.33-.16,1.33.59a.93.93,0,0,0,1.3.91,16.76,16.76,0,0,1,2.59-.57,2.47,2.47,0,0,0,1.75-1.59,1.65,1.65,0,0,1,1.65-1.23l4.26.82c.63.12.92.87.64,1.67a1.72,1.72,0,0,0,.51,2,12.87,12.87,0,0,1,1.9,1.42,1.16,1.16,0,0,0,1.73-.31c.47-.65,1.16-.66,1.52,0l2.46,4.26a2.26,2.26,0,0,1-.19,2.29,3.22,3.22,0,0,0-.4,2.56,29.44,29.44,0,0,1,.71,3.07c.15.86.67,1.34,1.21,1s1,.23,1,1.2v6.56a2.93,2.93,0,0,1-1,2.32,3.7,3.7,0,0,0-1.2,2.43c-.19,1.3-.42,2.61-.7,3.92-.23,1.06-.07,2,.38,2.08s.54,1,.17,2.07l-2.46,7.1c-.36,1-1,1.84-1.48,1.75s-1.19.68-1.68,1.68c-.61,1.27-1.26,2.5-1.94,3.71a3.33,3.33,0,0,0-.53,2.54c.26.46,0,1.51-.67,2.37l-4.26,5.74c-.64.85-1.36,1.18-1.62.73s-1-.2-1.71.5c-.87.89-1.76,1.72-2.66,2.5a3.62,3.62,0,0,0-1.3,2.31,2.71,2.71,0,0,1-1.33,2l-4.92,2.84c-.73.42-1.32.2-1.32-.48s-.59-1-1.3-.81a18.2,18.2,0,0,1-2.66.58,2.31,2.31,0,0,0-1.72,1.47,1.56,1.56,0,0,1-1.61,1.13l-4.26-.82a1.11,1.11,0,0,1-.68-1.58,1.67,1.67,0,0,0-.53-1.93,12.37,12.37,0,0,1-1.93-1.48,1.12,1.12,0,0,0-1.68.26.83.83,0,0,1-1.49,0l-2.46-4.26a2.24,2.24,0,0,1,.17-2.26,3.21,3.21,0,0,0,.39-2.53,30.26,30.26,0,0,1-.7-3.11c-.15-.87-.67-1.35-1.2-1S113.78,234.38,113.78,233.4Z" style="fill:#37474f"></path><path d="M124.94,167.3l18.64,10.79.08,0a.77.77,0,0,1,.31.7.93.93,0,0,0,1.3.91c.28-.09.55-.15.82-.22a14.56,14.56,0,0,1,1.77-.35,2,2,0,0,0,1.07-.57l-21.12-12.22a2,2,0,0,1-1.08.57C126.14,167,125.55,167.16,124.94,167.3Z" style="fill:#263238"></path><path d="M114.75,172.48l21.14,12.21a3,3,0,0,0,.52-1.5,2.34,2.34,0,0,1,.38-1.16l-21.14-12.2a2.34,2.34,0,0,0-.38,1.16A3,3,0,0,1,114.75,172.48Z"></path><path d="M110.21,176.5l20.28,11.75.11.05a.4.4,0,0,1,.17.17.49.49,0,0,0,.58.23,2,2,0,0,0,1.17-.67c.85-.86,1.71-1.67,2.59-2.42a3.88,3.88,0,0,0,.78-.92l-21.14-12.21a4.07,4.07,0,0,1-.78.91c-.88.76-1.74,1.56-2.59,2.42A2.09,2.09,0,0,1,110.21,176.5Z" style="fill:#263238"></path><path d="M98.37,193.18l21.14,12.2a.73.73,0,0,1,.56-.21c.49.1,1.24-.66,1.73-1.66.6-1.24,1.24-2.45,1.9-3.63a3.22,3.22,0,0,0,.51-2.59,1.06,1.06,0,0,1-.09-.64L103,184.45a1,1,0,0,0,.09.63,3.31,3.31,0,0,1-.5,2.6c-.68,1.17-1.3,2.38-1.9,3.61-.5,1-1.25,1.77-1.73,1.68A.74.74,0,0,0,98.37,193.18Z" style="fill:#263238"></path><path d="M119.51,205.38l-21.14-12.2A.74.74,0,0,1,99,193a.48.48,0,0,0,.26,0l21.13,12.2a.5.5,0,0,1-.27,0A.73.73,0,0,0,119.51,205.38Z"></path><path d="M103.08,185.08a1,1,0,0,1-.09-.63l21.13,12.2a1.06,1.06,0,0,0,.09.64,1.51,1.51,0,0,1,.08.91L103.16,186A1.49,1.49,0,0,0,103.08,185.08Z"></path><path d="M93,213.1l21.15,12.2a1.67,1.67,0,0,1,.63-.79,3.81,3.81,0,0,0,1.21-2.44c.19-1.3.43-2.58.71-3.89a2.37,2.37,0,0,0-.17-1.93v0l-.22-.13-.2-.11L95.42,204.07a2.6,2.6,0,0,1,.14,1.9c-.28,1.3-.52,2.6-.71,3.89a3.79,3.79,0,0,1-1.22,2.44A1.84,1.84,0,0,0,93,213.1Z" style="fill:#263238"></path><path d="M93.63,212.3a2.14,2.14,0,0,0,.72-.9l21.14,12.21a2.29,2.29,0,0,1-.72.9,1.67,1.67,0,0,0-.63.79L93,213.1A1.84,1.84,0,0,1,93.63,212.3Z"></path><path d="M94.77,229.94l21.13,12.22a2.17,2.17,0,0,1,.36-.87,2.73,2.73,0,0,0,.44-1.2,2.92,2.92,0,0,0,0-1.32,28.36,28.36,0,0,1-.7-3.11v0c-.16-.86-.66-1.33-1.2-1a.5.5,0,0,1-.57,0L94.81,223.41v0c.2,1.09.43,2.13.7,3.11a3.11,3.11,0,0,1-.39,2.52A2,2,0,0,0,94.77,229.94Z" style="fill:#263238"></path><path d="M116.26,241.29a2.17,2.17,0,0,0-.36.87L94.77,229.94a2,2,0,0,1,.35-.87,2.43,2.43,0,0,0,.43-1.08l21.13,12.19A2.68,2.68,0,0,1,116.26,241.29Z"></path><path d="M156.68,180.85a12.27,12.27,0,0,1,1.9,1.43,1.16,1.16,0,0,0,1.73-.33.9.9,0,0,1,1.12-.4l-.06-.05-5.12-3c0,.1-.05.2-.07.3A1.72,1.72,0,0,0,156.68,180.85Z" style="fill:#263238"></path><path d="M103.45,240.26a0,0,0,0,1,0,0l.05,0,.32.18,20.55,11.88.14.08a1.25,1.25,0,0,1-.34-1.45,1.63,1.63,0,0,0-.53-1.92,13.39,13.39,0,0,1-1.94-1.47,1.09,1.09,0,0,0-1.67.25.87.87,0,0,1-1,.42l-.19-.1L103,239A1.13,1.13,0,0,0,103.45,240.26Z"></path><path d="M134.53,250.38l2.18,1.26a.64.64,0,0,1-.3-.61c0-.69-.59-1-1.31-.82Z" style="fill:#263238"></path><path d="M149.18,241.13l.5.29,0-.07A.42.42,0,0,0,149.18,241.13Z" style="fill:#263238"></path><path d="M164.41,194.12c.14.87.68,1.34,1.21,1a.55.55,0,0,1,.44-.06l-.14-.08-.25-.14Z" style="fill:#263238"></path><path d="M127.81,166.38l21.12,12.22a2.5,2.5,0,0,0,.69-1,1.87,1.87,0,0,1,.73-1L129.21,164.4a1.89,1.89,0,0,0-.73,1A2.52,2.52,0,0,1,127.81,166.38Z"></path><path d="M101.15,222.86c0,10.66,3.55,18.16,9.15,21.39l3.79,2.17c-5.52-3.28-9-10.74-9-21.31,0-19.46,11.82-42.08,26.43-50.51,6.3-3.65,12.09-4,16.63-1.76-1.46-.83-1.7-1-3.25-1.87-4.64-2.69-10.69-2.45-17.31,1.38C113,180.78,101.15,203.4,101.15,222.86Z" style="fill:#455a64"></path><path d="M105.09,225.12c0,10.56,3.48,18,9,21.31l2.54,1.45c-5.51-3.26-9-10.73-9-21.28,0-19.46,11.84-42.08,26.43-50.51,6.53-3.78,12.5-4.06,17.12-1.49l-3-1.75c-4.54-2.28-10.33-1.89-16.63,1.75C116.91,183,105.09,205.66,105.09,225.12Z"></path><path d="M129.21,164.4l21.14,12.21a1.16,1.16,0,0,1,.92-.26l1.76.33,2.49.49a.48.48,0,0,1,.17.05l-.27-.17-19.57-11.31-.36-.2-.36-.21-.15-.08-.19-.12-.12-.06-.13-.07a.74.74,0,0,0-.14,0l-4.27-.82A1.16,1.16,0,0,0,129.21,164.4Z" style="fill:#455a64"></path><path d="M115.65,169.83,136.79,182a2.85,2.85,0,0,1,.94-.95l4.93-2.83a1.06,1.06,0,0,1,.92-.16L124.94,167.3l-1.57-.89-.56-.33-.3-.17a1,1,0,0,0-1,.12l-4.92,2.85A3,3,0,0,0,115.65,169.83Z" style="fill:#455a64"></path><path d="M103,184.45l21.13,12.2a4,4,0,0,1,.74-1.78l4.26-5.74c.48-.63,1-1,1.37-.88L110.21,176.5l-.74-.41c-.35-.21-1,.11-1.48.83l-4.27,5.75A3.62,3.62,0,0,0,103,184.45Z" style="fill:#455a64"></path><path d="M95,203.81l.12.08.31.18L116.09,216a2.24,2.24,0,0,1,0-2l2.46-7.1a3.61,3.61,0,0,1,1-1.54l-21.14-12.2a3.73,3.73,0,0,0-1,1.54L95,201.82C94.64,202.73,94.67,203.56,95,203.81Z" style="fill:#455a64"></path><path d="M92.65,214.63v6.56a1.39,1.39,0,0,0,.46,1.24l1.7,1,19.37,11.19a1.54,1.54,0,0,1-.39-1.19v-6.57a3.54,3.54,0,0,1,.35-1.53h0L93,213.1A3.69,3.69,0,0,0,92.65,214.63Z" style="fill:#455a64"></path><path d="M95,231.34l2.46,4.26a1,1,0,0,0,.38.39l1.16.67.43.24L103,239l15.89,9.17a1,1,0,0,1-.33-.35l-2.46-4.27a2.16,2.16,0,0,1-.19-1.39L94.77,229.94A2.11,2.11,0,0,0,95,231.34Z" style="fill:#455a64"></path><path d="M125.75,223.21c0,10.63,6.47,15.52,14.44,10.92s14.44-17,14.44-27.59-6.46-15.52-14.44-10.92S125.75,212.58,125.75,223.21Zm2.5-1.44c0-8.79,5.35-19,11.94-22.82s11.95.23,11.95,9-5.35,19-11.95,22.82S128.25,230.57,128.25,221.77Z" style="fill:#BA68C8"></path><path d="M128.24,221.77a13.08,13.08,0,0,0,2.11,7.81c2.15,2.93,5.75,3.58,9.84,1.22,6.61-3.81,11.95-14,11.95-22.82,0-6.15-2.61-10-6.44-10.42a9.07,9.07,0,0,0-5.51,1.38C133.59,202.76,128.24,213,128.24,221.77Z" style="fill:#BA68C8"></path><path d="M128.24,221.77a13.08,13.08,0,0,0,2.11,7.81c2.15,2.93,5.75,3.58,9.84,1.22,6.61-3.81,11.95-14,11.95-22.82,0-6.15-2.61-10-6.44-10.42a9.07,9.07,0,0,0-5.51,1.38C133.59,202.76,128.24,213,128.24,221.77Z" style="opacity:0.4"></path><path d="M128.24,221.77a13.08,13.08,0,0,0,2.11,7.81,8.92,8.92,0,0,0,5.53-1.38c6.6-3.8,11.94-14,11.94-22.82a13.06,13.06,0,0,0-2.12-7.82,9.07,9.07,0,0,0-5.51,1.38C133.59,202.76,128.24,213,128.24,221.77Z" style="fill:#263238"></path><path d="M141.81,209.38l1.7,6,4.31-14.28a5.52,5.52,0,0,0-.82-2.89Z" style="fill:#BA68C8"></path><path d="M141.81,209.38l1.7,6,4.31-14.28a5.52,5.52,0,0,0-.82-2.89Z" style="opacity:0.2"></path><path d="M144,213.35l-4.46,6.89,3,3.61a9.21,9.21,0,0,0,2.3-3.37Z" style="fill:#BA68C8"></path><path d="M144,213.35l-4.46,6.89,3,3.61a9.21,9.21,0,0,0,2.3-3.37Z" style="opacity:0.2"></path><path d="M129,226.84a8.83,8.83,0,0,0,1.17,2.45l10.73-9.86L137.14,218l-.27,1.25-1.09-.46h0Z" style="fill:#BA68C8"></path><path d="M129,226.84a8.83,8.83,0,0,0,1.17,2.45l10.73-9.86L137.14,218l-.27,1.25-1.09-.46h0Z" style="opacity:0.2"></path><path d="M128.7,217.17l7.08,1.58h0l.66-1.06.7.27,1.16-5.45-.86.5.06-1.42-7.16,0A30,30,0,0,0,128.7,217.17Z" style="fill:#BA68C8"></path><path d="M128.7,217.17l7.08,1.58h0l.66-1.06.7.27,1.16-5.45-.86.5.06-1.42-7.16,0A30,30,0,0,0,128.7,217.17Z" style="opacity:0.2"></path><path d="M137.5,211.59l1.07-.34-.27,1.26,4.64-2.69-4.08-10A20.92,20.92,0,0,0,135.4,203Z" style="fill:#BA68C8"></path><path d="M137.5,211.59l1.07-.34-.27,1.26,4.64-2.69-4.08-10A20.92,20.92,0,0,0,135.4,203Z" style="opacity:0.2"></path><path d="M135.67,217.48c0,3.33,2,4.86,4.52,3.42s4.52-5.31,4.52-8.63-2-4.86-4.52-3.42S135.67,214.16,135.67,217.48Z" style="fill:#BA68C8"></path><path d="M397.58,323.43a3.79,3.79,0,0,1-1.22-2.44c-.19-1.29-.42-2.59-.71-3.89a2.56,2.56,0,0,1,.14-1.9l.39-.23c.36-.21.4-1.07.07-2l-2.46-7.1c-.36-1-1.05-1.83-1.53-1.74s-1.23-.67-1.72-1.67c-.6-1.23-1.24-2.44-1.9-3.62a3.29,3.29,0,0,1-.51-2.6,2.71,2.71,0,0,0-.64-2.41l-4.26-5.74c-.54-.72-1.14-1.05-1.49-.85l-.74.43a2.21,2.21,0,0,1-1.18-.69c-.84-.86-1.7-1.67-2.58-2.42a3.71,3.71,0,0,1-1.3-2.41,2.76,2.76,0,0,0-1.33-2.11l-4.92-2.85a1,1,0,0,0-1-.11l-2.42,1.39a17.28,17.28,0,0,0-1.8-.35,2.46,2.46,0,0,1-1.75-1.58,1.66,1.66,0,0,0-1.65-1.24l-4.26.82a.85.85,0,0,0-.28.1c-.43.26-21.05,12.16-21.13,12.21a1.19,1.19,0,0,0-.45,1.28l-5.24,3a1,1,0,0,0-.34.37l-2.46,4.26a2.28,2.28,0,0,0,.19,2.3,3.24,3.24,0,0,1,.41,2.55,27.09,27.09,0,0,0-.71,3.07l-1.74,1a1.38,1.38,0,0,0-.46,1.23V314a2.88,2.88,0,0,0,1,2.32,3.7,3.7,0,0,1,1.19,2.43c.19,1.31.42,2.61.7,3.92a2.59,2.59,0,0,1-.13,1.91l-.36.21c-.36.21-.4,1.06-.06,2l2.46,7.1c.36,1.06,1,1.84,1.48,1.75s1.2.68,1.68,1.69c.61,1.26,1.26,2.5,1.94,3.7a3.34,3.34,0,0,1,.53,2.55c-.26.45,0,1.51.67,2.36l4.27,5.74c.53.72,1.14,1.07,1.47.88l.64-.37a2.16,2.16,0,0,1,1.21.73c.87.88,1.76,1.71,2.66,2.49a3.63,3.63,0,0,1,1.31,2.31,2.68,2.68,0,0,0,1.32,2l4.92,2.84a1.08,1.08,0,0,0,1,.14l2.2-1.27a16,16,0,0,0,2.08.42,2.31,2.31,0,0,1,1.71,1.47,1.55,1.55,0,0,0,1.61,1.13l4.26-.82a.83.83,0,0,0,.29-.1c.43-.26,21-12.16,21.13-12.21a1.14,1.14,0,0,0,.45-1.27l5.2-3a1,1,0,0,0,.37-.38l2.46-4.27a2.22,2.22,0,0,0-.17-2.26,3.25,3.25,0,0,1-.38-2.53,30.26,30.26,0,0,0,.7-3.11v0l1.71-1a1.43,1.43,0,0,0,.45-1.24v-6.56A2.93,2.93,0,0,0,397.58,323.43Z" style="fill:#37474f"></path><path d="M377.43,344.53V338a3,3,0,0,0-1-2.33,3.74,3.74,0,0,1-1.22-2.44c-.19-1.29-.43-2.59-.71-3.89-.23-1.05-.07-2,.4-2.08s.56-1,.2-2.07l-2.46-7.11c-.37-1.05-1.05-1.83-1.53-1.74s-1.23-.66-1.72-1.67c-.6-1.23-1.24-2.44-1.91-3.62a3.31,3.31,0,0,1-.5-2.6,2.73,2.73,0,0,0-.65-2.41l-4.26-5.74c-.63-.86-1.37-1.16-1.65-.67s-1.06.26-1.75-.44c-.84-.86-1.71-1.67-2.59-2.42a3.76,3.76,0,0,1-1.3-2.41,2.75,2.75,0,0,0-1.32-2.11l-4.92-2.84c-.73-.43-1.33-.17-1.33.58a.93.93,0,0,1-1.3.91,18.19,18.19,0,0,0-2.58-.57,2.47,2.47,0,0,1-1.76-1.58,1.64,1.64,0,0,0-1.65-1.24l-4.26.82c-.63.12-.92.87-.64,1.67a1.72,1.72,0,0,1-.51,2,12.94,12.94,0,0,0-1.9,1.43,1.17,1.17,0,0,1-1.73-.32c-.47-.65-1.16-.65-1.52,0l-2.46,4.26a2.28,2.28,0,0,0,.19,2.3,3.24,3.24,0,0,1,.41,2.55,27.09,27.09,0,0,0-.71,3.07c-.16.87-.68,1.34-1.22,1s-1,.23-1,1.2V314a2.88,2.88,0,0,0,1,2.32,3.7,3.7,0,0,1,1.19,2.43c.19,1.31.42,2.61.7,3.92.23,1.06.08,2-.38,2.08s-.54,1-.17,2.07l2.46,7.1c.36,1.06,1,1.84,1.48,1.75s1.2.68,1.68,1.69c.61,1.26,1.26,2.5,1.94,3.7a3.35,3.35,0,0,1,.53,2.55c-.26.45,0,1.51.67,2.36l4.27,5.74c.63.85,1.35,1.18,1.61.73s1-.2,1.71.51c.87.88,1.76,1.71,2.66,2.49a3.63,3.63,0,0,1,1.31,2.31,2.68,2.68,0,0,0,1.32,2l4.92,2.84c.73.42,1.32.21,1.32-.48s.59-1,1.3-.81a18,18,0,0,0,2.67.58,2.31,2.31,0,0,1,1.71,1.47,1.55,1.55,0,0,0,1.61,1.13l4.26-.82a1.11,1.11,0,0,0,.68-1.58,1.68,1.68,0,0,1,.53-1.93,12.86,12.86,0,0,0,1.94-1.47,1.1,1.1,0,0,1,1.67.25.83.83,0,0,0,1.49,0l2.46-4.26a2.26,2.26,0,0,0-.17-2.27,3.24,3.24,0,0,1-.39-2.52,28.89,28.89,0,0,0,.7-3.11c.15-.87.67-1.36,1.2-1.05S377.43,345.51,377.43,344.53Z" style="fill:#263238"></path><path d="M366.27,278.44l-18.64,10.78-.08,0a.8.8,0,0,0-.31.7.93.93,0,0,1-1.3.91c-.28-.09-.55-.15-.82-.22a16.76,16.76,0,0,0-1.77-.35,2,2,0,0,1-1.07-.57l21.12-12.22a2,2,0,0,0,1.08.58C365.07,278.18,365.66,278.29,366.27,278.44Z" style="fill:#263238"></path><path d="M376.46,283.61l-21.14,12.21a3.14,3.14,0,0,1-.52-1.5,2.37,2.37,0,0,0-.38-1.16L375.56,281a2.34,2.34,0,0,1,.38,1.16A3.08,3.08,0,0,0,376.46,283.61Z"></path><path d="M381,287.63l-20.28,11.75-.11.05a.4.4,0,0,0-.17.17.5.5,0,0,1-.58.24,2.13,2.13,0,0,1-1.17-.68c-.85-.86-1.71-1.66-2.59-2.42a3.88,3.88,0,0,1-.78-.92l21.14-12.21a4.37,4.37,0,0,0,.78.92c.88.75,1.74,1.56,2.59,2.41A2,2,0,0,0,381,287.63Z" style="fill:#263238"></path><path d="M392.84,304.31,371.7,316.52a.7.7,0,0,0-.56-.21c-.48.09-1.24-.67-1.73-1.67-.6-1.23-1.24-2.44-1.9-3.63a3.22,3.22,0,0,1-.51-2.59,1,1,0,0,0,.09-.63l21.13-12.21a1,1,0,0,1-.09.63,3.31,3.31,0,0,0,.5,2.6c.68,1.17,1.31,2.38,1.9,3.62.5,1,1.25,1.77,1.73,1.67A.82.82,0,0,1,392.84,304.31Z" style="fill:#263238"></path><path d="M371.7,316.52l21.14-12.21a.82.82,0,0,0-.58-.21.6.6,0,0,1-.26,0l-21.13,12.2a.64.64,0,0,0,.27,0A.7.7,0,0,1,371.7,316.52Z"></path><path d="M388.13,296.21a1,1,0,0,0,.09-.63l-21.13,12.21a1,1,0,0,1-.09.63,1.52,1.52,0,0,0-.08.91l21.13-12.22A1.57,1.57,0,0,1,388.13,296.21Z"></path><path d="M398.22,324.23l-21.15,12.2a1.67,1.67,0,0,0-.63-.79,3.7,3.7,0,0,1-1.2-2.43c-.2-1.3-.43-2.59-.72-3.89a2.38,2.38,0,0,1,.17-1.94v0l.22-.13.2-.11,20.67-11.92a2.61,2.61,0,0,0-.14,1.9c.28,1.3.52,2.6.71,3.89a3.8,3.8,0,0,0,1.23,2.45A1.87,1.87,0,0,1,398.22,324.23Z" style="fill:#263238"></path><path d="M397.59,323.44a2.14,2.14,0,0,1-.73-.9l-21.14,12.2a2.29,2.29,0,0,0,.72.9,1.67,1.67,0,0,1,.63.79l21.15-12.2A1.87,1.87,0,0,0,397.59,323.44Z"></path><path d="M396.44,341.08l-21.13,12.21a2.17,2.17,0,0,0-.36-.87,2.73,2.73,0,0,1-.44-1.2,2.92,2.92,0,0,1,.05-1.32,28.36,28.36,0,0,0,.7-3.11v0c.16-.86.66-1.33,1.2-1a.5.5,0,0,0,.57,0l19.37-11.18v0c-.19,1.09-.43,2.14-.7,3.11a3.14,3.14,0,0,0,.39,2.53A1.93,1.93,0,0,1,396.44,341.08Z" style="fill:#263238"></path><path d="M375,352.42a2.17,2.17,0,0,1,.36.87l21.13-12.21a1.93,1.93,0,0,0-.35-.87,2.52,2.52,0,0,1-.43-1.09l-21.13,12.2A2.64,2.64,0,0,0,375,352.42Z"></path><path d="M334.53,292a13.49,13.49,0,0,0-1.9,1.43,1.16,1.16,0,0,1-1.73-.32.9.9,0,0,0-1.12-.41l.07-.05,5.11-2.95c0,.09.05.19.08.3A1.71,1.71,0,0,1,334.53,292Z" style="fill:#263238"></path><path d="M387.76,351.39s0,0,0,0l-.05,0-.31.18-20.56,11.88-.14.08a1.24,1.24,0,0,0,.34-1.44,1.66,1.66,0,0,1,.53-1.93,12.86,12.86,0,0,0,1.94-1.47,1.11,1.11,0,0,1,1.68.25.88.88,0,0,0,1,.43l.19-.11,15.89-9.17A1.12,1.12,0,0,1,387.76,351.39Z"></path><path d="M356.68,361.51l-2.18,1.27a.67.67,0,0,0,.3-.62c0-.68.6-1,1.31-.81Z" style="fill:#263238"></path><path d="M342,352.26l-.51.29,0-.06A.44.44,0,0,1,342,352.26Z" style="fill:#263238"></path><path d="M326.8,305.25c-.14.87-.68,1.34-1.21,1a.55.55,0,0,0-.44-.07l.14-.08.25-.14Z" style="fill:#263238"></path><path d="M363.4,277.51l-21.12,12.22a2.6,2.6,0,0,1-.69-1,1.91,1.91,0,0,0-.73-1L362,275.54a1.83,1.83,0,0,1,.73,1A2.52,2.52,0,0,0,363.4,277.51Z"></path><path d="M390.06,334c0,10.66-3.55,18.17-9.15,21.39l-3.79,2.17c5.52-3.27,9-10.74,9-21.31,0-19.46-11.82-42.08-26.43-50.51-6.3-3.64-12.09-4-16.63-1.76,1.46-.83,1.7-1,3.25-1.87,4.64-2.69,10.69-2.45,17.31,1.38C378.22,291.91,390.06,314.53,390.06,334Z" style="fill:#37474f"></path><path d="M386.12,336.25c0,10.56-3.48,18-9,21.31L374.58,359c5.51-3.27,9-10.74,9-21.29,0-19.46-11.83-42.08-26.43-50.51-6.53-3.77-12.5-4.06-17.12-1.49l3-1.75c4.54-2.28,10.33-1.89,16.63,1.75C374.3,294.16,386.12,316.79,386.12,336.25Z"></path><path d="M362,275.54l-21.14,12.2a1.2,1.2,0,0,0-.92-.26l-1.76.34-2.49.48a.48.48,0,0,0-.17.05l.27-.17,19.57-11.3.36-.21.37-.21.14-.08.19-.12.12-.06.13-.07a.74.74,0,0,1,.14,0l4.27-.81A1.09,1.09,0,0,1,362,275.54Z" style="fill:#37474f"></path><path d="M375.56,281l-21.14,12.2a2.76,2.76,0,0,0-.94-1l-4.93-2.83a1.06,1.06,0,0,0-.92-.16l18.64-10.78,1.58-.9.56-.33.29-.17a1,1,0,0,1,1,.12l4.92,2.85A3,3,0,0,1,375.56,281Z" style="fill:#37474f"></path><path d="M388.22,295.58l-21.13,12.21a3.87,3.87,0,0,0-.74-1.79l-4.25-5.73c-.49-.64-1-1-1.38-.89L381,287.63l.74-.41c.35-.21.95.12,1.48.83l4.27,5.75A3.62,3.62,0,0,1,388.22,295.58Z" style="fill:#37474f"></path><path d="M396.22,314.94l-.12.08-.31.18-20.67,11.92a2.24,2.24,0,0,0,0-2l-2.46-7.1a3.51,3.51,0,0,0-1-1.53l21.14-12.21a3.73,3.73,0,0,1,1,1.54l2.47,7.1C396.57,313.86,396.54,314.69,396.22,314.94Z" style="fill:#37474f"></path><path d="M398.56,325.76v6.56a1.42,1.42,0,0,1-.45,1.24l-1.71,1L377,345.73a1.54,1.54,0,0,0,.39-1.19V338a3.47,3.47,0,0,0-.35-1.52v0l21.15-12.2A3.69,3.69,0,0,1,398.56,325.76Z" style="fill:#37474f"></path><path d="M396.26,342.47l-2.46,4.27a1,1,0,0,1-.38.39l-1.16.66-.43.25-3.61,2.09-15.89,9.17a1,1,0,0,0,.33-.35l2.46-4.27a2.16,2.16,0,0,0,.19-1.39l21.13-12.21A2.09,2.09,0,0,1,396.26,342.47Z" style="fill:#37474f"></path><path d="M351,306.76c-8-4.61-14.44.28-14.44,10.91s6.46,23,14.44,27.59,14.44-.28,14.44-10.92S359,311.36,351,306.76Zm0,35.18c-6.6-3.81-11.95-14-11.95-22.83s5.35-12.84,11.95-9S363,324.11,363,332.9,357.62,345.74,351,341.94Z" style="fill:#BA68C8"></path><path d="M363,332.91a13.07,13.07,0,0,1-2.11,7.8c-2.15,2.93-5.75,3.58-9.84,1.23-6.6-3.82-11.95-14-11.95-22.82,0-6.16,2.61-10,6.44-10.42a8.93,8.93,0,0,1,5.51,1.38C357.62,313.89,363,324.11,363,332.91Z" style="fill:#BA68C8"></path><path d="M363,332.91a13.07,13.07,0,0,1-2.11,7.8c-2.15,2.93-5.75,3.58-9.84,1.23-6.6-3.82-11.95-14-11.95-22.82,0-6.16,2.61-10,6.44-10.42a8.93,8.93,0,0,1,5.51,1.38C357.62,313.89,363,324.11,363,332.91Z" style="opacity:0.4"></path><path d="M363,332.91a13.07,13.07,0,0,1-2.11,7.8,8.92,8.92,0,0,1-5.53-1.38c-6.59-3.8-11.94-14-11.94-22.81a13,13,0,0,1,2.12-7.82,8.93,8.93,0,0,1,5.51,1.38C357.62,313.89,363,324.11,363,332.91Z" style="fill:#263238"></path><path d="M349.4,320.51l-1.7,6-4.31-14.28a5.64,5.64,0,0,1,.82-2.89Z" style="fill:#BA68C8"></path><path d="M349.4,320.51l-1.7,6-4.31-14.28a5.64,5.64,0,0,1,.82-2.89Z" style="opacity:0.2"></path><path d="M347.26,324.48l4.46,6.89-3,3.61a9.25,9.25,0,0,1-2.3-3.37Z" style="fill:#BA68C8"></path><path d="M347.26,324.48l4.46,6.89-3,3.61a9.25,9.25,0,0,1-2.3-3.37Z" style="opacity:0.2"></path><path d="M362.23,338a9.05,9.05,0,0,1-1.18,2.46l-10.73-9.86,3.75-1.47.27,1.24,1.09-.45h0Z" style="fill:#BA68C8"></path><path d="M362.23,338a9.05,9.05,0,0,1-1.18,2.46l-10.73-9.86,3.75-1.47.27,1.24,1.09-.45h0Z" style="opacity:0.2"></path><path d="M362.51,328.3l-7.08,1.59h0l-.66-1.07-.7.28-1.16-5.46.86.5-.06-1.41,7.16-.05A30.45,30.45,0,0,1,362.51,328.3Z" style="fill:#BA68C8"></path><path d="M362.51,328.3l-7.08,1.59h0l-.66-1.07-.7.28-1.16-5.46.86.5-.06-1.41,7.16-.05A30.45,30.45,0,0,1,362.51,328.3Z" style="opacity:0.2"></path><path d="M353.71,322.73l-1.07-.35.27,1.26L348.27,321l4.08-10a20.92,20.92,0,0,1,3.46,3.24Z" style="fill:#BA68C8"></path><path d="M353.71,322.73l-1.07-.35.27,1.26L348.27,321l4.08-10a20.92,20.92,0,0,1,3.46,3.24Z" style="opacity:0.2"></path><path d="M355.54,328.62c0,3.32-2,4.85-4.52,3.41s-4.52-5.3-4.52-8.63,2-4.86,4.52-3.42S355.54,325.29,355.54,328.62Z" style="fill:#BA68C8"></path><polygon points="366.86 314.67 366.86 339.07 282.3 387.89 282.3 363.48 366.86 314.67"></polygon><path d="M397.52,290.89l-3.21-7.43a9.32,9.32,0,0,0-3.28-3.68L353.25,258a2.32,2.32,0,0,0-2.37,0l-21.14,12.2h0a2.45,2.45,0,0,0-1,1.07l-7.86,16.89L260.17,253a7.53,7.53,0,0,1-3-3.78l-16.39-54.17a7.56,7.56,0,0,0-3-3.79L202.65,171a2.64,2.64,0,0,0-2.61,0l-21,12.16-.06,0v0l-.26.15-.26.22a2.53,2.53,0,0,0-.43.56l-5.32,9.23a11.48,11.48,0,0,0-1.31,4.85v9.6l9.27-16a2.6,2.6,0,0,1,3.55-1l8.31,4.8,22.1,12.76a7.6,7.6,0,0,1,3,3.79L234,266.38a7.59,7.59,0,0,0,3,3.8l74.76,43.16a2,2,0,0,0,.59.25,1.1,1.1,0,0,0,.29.05,1.05,1.05,0,0,0,.3,0,2.71,2.71,0,0,0,.68-.09,2,2,0,0,0,.45-.19l.11-.06a2.12,2.12,0,0,0,.59-.53.63.63,0,0,0,.11-.15,2.26,2.26,0,0,0,.22-.37l15.73-33.75a2.33,2.33,0,0,1,3.35-1l9.92,5.72,20.53,11.85a11.56,11.56,0,0,1,3.55,3.55l9.23,16,21.13-12.21v-6.55A15,15,0,0,0,397.52,290.89Z" style="fill:#BA68C8"></path><path d="M397.52,290.89l-3.21-7.43a9.32,9.32,0,0,0-3.28-3.68L353.25,258a2.32,2.32,0,0,0-2.37,0l-21.14,12.2h0a2.45,2.45,0,0,0-1,1.07l-7.86,16.89L260.17,253a7.53,7.53,0,0,1-3-3.78l-16.39-54.17a7.56,7.56,0,0,0-3-3.79L202.65,171a2.64,2.64,0,0,0-2.61,0l-21,12.16-.06,0v0l-.26.15-.26.22a2.53,2.53,0,0,0-.43.56l-5.32,9.23a11.48,11.48,0,0,0-1.31,4.85v9.6l9.27-16a2.6,2.6,0,0,1,3.55-1l8.31,4.8,22.1,12.76a7.6,7.6,0,0,1,3,3.79L234,266.38a7.59,7.59,0,0,0,3,3.8l74.76,43.16a2,2,0,0,0,.59.25,2,2,0,0,0,.59.08,2.71,2.71,0,0,0,.68-.09,2,2,0,0,0,.45-.19l.11-.06a2.27,2.27,0,0,0,.59-.53.63.63,0,0,0,.11-.15,2.26,2.26,0,0,0,.22-.37l15.73-33.75a2.33,2.33,0,0,1,3.35-1l9.92,5.72,20.53,11.85a11.56,11.56,0,0,1,3.55,3.55l9.23,16,21.13-12.21v-6.55A15,15,0,0,0,397.52,290.89Z" style="opacity:0.4"></path><path d="M377.44,314.64l21.12-12.21v-6.55a13.43,13.43,0,0,0-.28-2.43l-24.8,14.32Z" style="opacity:0.2"></path><path d="M397.53,290.89l-3.22-7.43a8.39,8.39,0,0,0-1.45-2.13l-26.34,15.2a10.32,10.32,0,0,1,1.67,2.07l5.29,9.17,24.8-14.32A14.25,14.25,0,0,0,397.53,290.89Z" style="opacity:0.1"></path><path d="M258.82,251.93a7.45,7.45,0,0,1-1.65-2.67l-16.39-54.17a6.9,6.9,0,0,0-1.24-2.2l-25.92,15,1,.56a7.62,7.62,0,0,1,3,3.79L234,266.27Z" style="opacity:0.1"></path><path d="M234,266.38,217.59,212.2a7.62,7.62,0,0,0-3-3.79l-30.42-17.56a2.6,2.6,0,0,0-3.55,1l-9.27,16v-9.6a11.39,11.39,0,0,1,1.3-4.85l5.33-9.23a2.6,2.6,0,0,1,3.55-.95l35.13,20.28a7.66,7.66,0,0,1,3,3.79l16.39,54.17a7.54,7.54,0,0,0,3,3.79l70.68,40.8a2.34,2.34,0,0,0,3.35-1.05l15.7-33.77a2.35,2.35,0,0,1,3.35-1.06L369.9,292a9.23,9.23,0,0,1,3.29,3.69l3.21,7.43a15,15,0,0,1,1,5v6.55l-9.25-16a11.35,11.35,0,0,0-3.55-3.55L334.2,277.47a2.34,2.34,0,0,0-3.35,1.06l-15.73,33.75a2.35,2.35,0,0,1-3.35,1.06L237,270.17A7.62,7.62,0,0,1,234,266.38Z" style="fill:#BA68C8"></path><path d="M377.43,308.09v6.55l-9.23-16a11.56,11.56,0,0,0-3.55-3.55L344.12,283.2l-9.92-5.72a2.33,2.33,0,0,0-3.35,1l-15.73,33.75a2.26,2.26,0,0,1-.22.37.63.63,0,0,1-.11.15,2.12,2.12,0,0,1-.59.53l-.11.06a2,2,0,0,1-.45.19,2.71,2.71,0,0,1-.68.09,1.05,1.05,0,0,1-.3,0,1.1,1.1,0,0,1-.29-.05,2,2,0,0,1-.59-.25L237,270.18a7.59,7.59,0,0,1-3-3.8L217.58,212.2a7.6,7.6,0,0,0-3-3.79l-22.1-12.76-8.31-4.8a2.6,2.6,0,0,0-3.55,1l-9.27,16v-9.6a11.48,11.48,0,0,1,1.31-4.85l5.32-9.23a2.53,2.53,0,0,1,.43-.56l.26-.22.27-.18.06,0a2.65,2.65,0,0,1,2.53.05l35.12,20.29a7.52,7.52,0,0,1,3,3.78l16.39,54.17a7.56,7.56,0,0,0,3,3.79l70.66,40.81a2.35,2.35,0,0,0,3.36-1.07l7.84-16.87,7.86-16.89a2.45,2.45,0,0,1,1-1.07,2.32,2.32,0,0,1,2.4,0L369.9,292a9.19,9.19,0,0,1,3.29,3.68l3.22,7.43A15.11,15.11,0,0,1,377.43,308.09Z" style="opacity:0.55"></path><polygon points="203.04 287.21 92.06 223.14 187.18 168.22 298.16 232.29 203.04 287.21" style="fill:#BA68C8"></polygon><polygon points="208.32 284.16 107.92 226.19 192.47 177.37 292.87 235.34 208.32 284.16" style="opacity:0.5"></polygon><polygon points="217.38 299.36 217.38 277.9 307.23 226.13 309.87 242.92 315.15 245.97 220.03 300.89 217.38 299.36" style="fill:#263238"></polygon><path d="M306,236.82h0c-1.53-.88-3.64-.75-6,.59l-72.68,42c-4.67,2.69-8.45,9.23-8.45,14.62v20.66l61.93,51.81,91.56-89.73Z" style="fill:#BA68C8"></path><path d="M292.23,345.55l3.08-15.19s-21.09-14.26-35.92-24.85-24.65-18.3-21-24.18,20.17-17.81,49.76-37.08l-60.83,35.14c-4.67,2.69-8.45,9.23-8.45,14.62v16.43Z" style="fill:#fff;opacity:0.30000000000000004"></path><path d="M286.14,328.62a10,10,0,0,0-1.39,4.71v19.55l-3.93,13.6-61.93-51.81V294a17,17,0,0,1,2.29-8Z" style="fill:#BA68C8"></path><path d="M286.14,328.62a10,10,0,0,0-1.39,4.71v19.55l-3.93,13.6-61.93-51.81V294a17,17,0,0,1,2.29-8Z" style="opacity:0.2"></path><path d="M282.14,354.81V333.34a13.74,13.74,0,0,1,6.29-10.89L367,277.09a6.3,6.3,0,0,1,3.16-.94c2.65,0,4.42,2.14,4.42,5.32V305l-2.44,12.76-92.81,53.56Z" style="fill:#BA68C8"></path><path d="M282.14,354.81V333.34a13.74,13.74,0,0,1,6.29-10.89L367,277.09a6.3,6.3,0,0,1,3.16-.94c2.65,0,4.42,2.14,4.42,5.32V305l-2.44,12.76-92.81,53.56Z" style="opacity:0.1"></path><path d="M373.28,304.84V281.47c0-3.59-2.52-5.05-5.63-3.25l-78.57,45.36a12.45,12.45,0,0,0-5.63,9.76v21.6l-2.62,15.48,89.83-51.85Z" style="fill:#263238"></path><path d="M284.75,355.06V333.34a11.18,11.18,0,0,1,5-8.63l78.57-45.37a3.85,3.85,0,0,1,1.86-.59c1.64,0,1.82,1.9,1.82,2.72v23.24l-2.79,14.71-86.85,50.13Z" style="fill:#BA68C8"></path><path d="M284.75,355.06V333.34a11.18,11.18,0,0,1,5-8.63l78.57-45.37a3.85,3.85,0,0,1,1.86-.59c1.64,0,1.82,1.9,1.82,2.72v23.24l-2.79,14.71-86.85,50.13Z" style="opacity:0.1"></path><polygon points="371.98 304.71 284.75 355.06 282.34 369.55 369.19 319.42 371.98 304.71" style="opacity:0.2"></polygon><path d="M311.56,317.33a1.27,1.27,0,0,1,.56-1l1.24-.72c.31-.19.56,0,.56.32L314,338l-2.84,14.9-2.5,1.45,3-15Z" style="fill:#37474f"></path><path d="M316.85,314.28a1.25,1.25,0,0,1,.56-1l1.23-.73c.31-.18.56,0,.56.32l.06,22.09-2.85,14.9-2.49,1.44,3-15Z" style="fill:#37474f"></path><path d="M322.13,311.23a1.25,1.25,0,0,1,.56-1l1.23-.73c.31-.18.57,0,.57.32l.05,22.09-2.84,14.9-2.5,1.44,3-14.95Z" style="fill:#37474f"></path><path d="M327.41,308.18a1.25,1.25,0,0,1,.56-1l1.24-.73c.31-.18.56,0,.56.32l.06,22.08L327,343.77l-2.49,1.45,3-15Z" style="fill:#37474f"></path><path d="M332.7,305.13a1.27,1.27,0,0,1,.56-1l1.23-.73c.31-.18.56,0,.56.32l.06,22.09-2.85,14.9-2.49,1.44,3-14.95Z" style="fill:#37474f"></path><path d="M338,302.08a1.28,1.28,0,0,1,.56-1l1.24-.72c.31-.19.56,0,.56.32l.05,22.08-2.84,14.9-2.5,1.45,3-15Z" style="fill:#37474f"></path><path d="M343.27,299a1.24,1.24,0,0,1,.55-1l1.24-.73c.31-.18.56,0,.56.32l.06,22.08-2.85,14.91-2.49,1.44,3-15Z" style="fill:#37474f"></path><path d="M368,285.74v12a3.11,3.11,0,0,1-1.41,2.44l-10.37,6c-.77.45-1.4.09-1.4-.81v-12a3.14,3.14,0,0,1,1.4-2.44l10.37-6C367.37,284.48,368,284.85,368,285.74Z" style="fill:#f0f0f0"></path><path d="M301.9,323.92v12a3.12,3.12,0,0,1-1.41,2.44l-10.37,6c-.77.45-1.4.08-1.4-.81v-12a3.13,3.13,0,0,1,1.4-2.44l10.37-6C301.27,322.66,301.9,323,301.9,323.92Z" style="fill:#f0f0f0"></path><path d="M97.34,262.8,76.21,275,85.47,259A2.61,2.61,0,0,1,89,258Z" style="fill:#BA68C8"></path><path d="M97.34,262.8,76.21,275,85.47,259A2.61,2.61,0,0,1,89,258Z" style="opacity:0.7000000000000001"></path><path d="M238.41,344.25l-7.87,16.87a2.34,2.34,0,0,1-1,1.09c-.68.41-21,12.16-21.12,12.21h0a1.68,1.68,0,0,1-.48.2,2.4,2.4,0,0,0,1.49-1.31l15.72-33.74a2.35,2.35,0,0,1,3.36-1.06Z" style="fill:#BA68C8"></path><path d="M238.41,344.25l-7.87,16.87a2.34,2.34,0,0,1-1,1.09c-.68.41-21,12.16-21.12,12.21h0a1.68,1.68,0,0,1-.48.2,2.4,2.4,0,0,0,1.49-1.31l15.72-33.74a2.35,2.35,0,0,1,3.36-1.06Z" style="opacity:0.7000000000000001"></path><path d="M291.88,383.68a3.77,3.77,0,0,1-1.22-2.44c-.19-1.3-.43-2.6-.71-3.89a2.59,2.59,0,0,1,.14-1.91l.39-.22c.36-.22.4-1.07.07-2l-2.46-7.1c-.37-1.06-1-1.84-1.53-1.75s-1.23-.66-1.72-1.67c-.6-1.23-1.24-2.44-1.91-3.62a3.3,3.3,0,0,1-.5-2.6,2.73,2.73,0,0,0-.65-2.41l-4.26-5.74c-.53-.72-1.14-1-1.48-.84l-.74.42a2.14,2.14,0,0,1-1.18-.69c-.84-.85-1.7-1.66-2.58-2.42a3.73,3.73,0,0,1-1.31-2.41,2.76,2.76,0,0,0-1.32-2.11L264,337.41a1,1,0,0,0-1-.12l-2.42,1.4a17.36,17.36,0,0,0-1.8-.36,2.46,2.46,0,0,1-1.75-1.58,1.66,1.66,0,0,0-1.65-1.24l-4.26.82a.78.78,0,0,0-.28.11l-21.13,12.2a1.2,1.2,0,0,0-.45,1.28L224,353a.91.91,0,0,0-.34.36l-2.46,4.26a2.28,2.28,0,0,0,.19,2.3,3.24,3.24,0,0,1,.4,2.55,30,30,0,0,0-.71,3.07l-1.74,1a1.39,1.39,0,0,0-.45,1.23v6.56a2.93,2.93,0,0,0,1,2.32,3.7,3.7,0,0,1,1.2,2.43c.19,1.3.42,2.61.7,3.92a2.62,2.62,0,0,1-.13,1.9l-.36.21c-.36.21-.4,1.07-.06,2l2.46,7.1c.36,1.06,1,1.84,1.48,1.76s1.19.67,1.68,1.68c.61,1.26,1.25,2.5,1.93,3.71a3.29,3.29,0,0,1,.54,2.54c-.26.45,0,1.51.67,2.36l4.26,5.74c.54.73,1.15,1.07,1.47.88l.64-.37a2.27,2.27,0,0,1,1.22.73c.87.88,1.76,1.72,2.66,2.49a3.66,3.66,0,0,1,1.3,2.31,2.69,2.69,0,0,0,1.33,2l4.92,2.84a1,1,0,0,0,1,.14l2.2-1.26a17.6,17.6,0,0,0,2.07.41,2.35,2.35,0,0,1,1.72,1.48,1.57,1.57,0,0,0,1.61,1.13l4.26-.82a.92.92,0,0,0,.29-.11l21.13-12.21a1.16,1.16,0,0,0,.45-1.27l5.2-3a1,1,0,0,0,.37-.39l2.46-4.26a2.24,2.24,0,0,0-.17-2.27,3.24,3.24,0,0,1-.39-2.52,28.36,28.36,0,0,0,.7-3.11v0l1.7-1c.28-.15.46-.6.46-1.23V386A2.92,2.92,0,0,0,291.88,383.68Z" style="fill:#37474f"></path><path d="M271.72,404.78v-6.56a2.91,2.91,0,0,0-1-2.33,3.74,3.74,0,0,1-1.22-2.44c-.19-1.3-.43-2.59-.71-3.89-.23-1.06-.07-2,.4-2.09s.56-1,.2-2.07L267,378.3c-.37-1.06-1-1.84-1.53-1.75s-1.24-.66-1.73-1.67c-.6-1.23-1.23-2.44-1.9-3.62a3.34,3.34,0,0,1-.51-2.59,2.73,2.73,0,0,0-.64-2.42l-4.26-5.74c-.63-.85-1.37-1.15-1.65-.67s-1.06.27-1.75-.44c-.85-.85-1.71-1.66-2.59-2.42a3.76,3.76,0,0,1-1.3-2.41,2.76,2.76,0,0,0-1.32-2.11l-4.92-2.84c-.74-.42-1.33-.16-1.33.58a.92.92,0,0,1-1.3.91,18,18,0,0,0-2.59-.57,2.46,2.46,0,0,1-1.75-1.58,1.67,1.67,0,0,0-1.65-1.24l-4.26.82c-.63.13-.92.87-.64,1.68a1.71,1.71,0,0,1-.51,2,12.94,12.94,0,0,0-1.9,1.43,1.17,1.17,0,0,1-1.73-.32c-.48-.64-1.16-.65-1.52,0l-2.46,4.26a2.28,2.28,0,0,0,.19,2.3,3.24,3.24,0,0,1,.4,2.55,30,30,0,0,0-.71,3.07c-.15.87-.67,1.35-1.21,1s-1,.22-1,1.2v6.56a2.93,2.93,0,0,0,1,2.32,3.7,3.7,0,0,1,1.2,2.43c.19,1.3.42,2.61.7,3.92.23,1.05.07,2-.38,2.07s-.54,1-.17,2.07l2.46,7.1c.36,1.06,1,1.84,1.48,1.76s1.19.67,1.68,1.68c.61,1.26,1.25,2.5,1.93,3.71a3.29,3.29,0,0,1,.54,2.54c-.26.45,0,1.51.67,2.36l4.26,5.74c.64.86,1.36,1.18,1.62.73s1-.2,1.71.51c.87.88,1.76,1.72,2.66,2.49a3.66,3.66,0,0,1,1.3,2.31,2.69,2.69,0,0,0,1.33,2l4.92,2.84c.73.42,1.32.21,1.32-.48s.59-1,1.3-.81a18.2,18.2,0,0,0,2.66.58,2.35,2.35,0,0,1,1.72,1.48,1.57,1.57,0,0,0,1.61,1.13l4.26-.82a1.13,1.13,0,0,0,.68-1.59,1.64,1.64,0,0,1,.53-1.92,13,13,0,0,0,1.93-1.48,1.1,1.1,0,0,1,1.68.26.83.83,0,0,0,1.49,0l2.46-4.26a2.26,2.26,0,0,0-.17-2.27,3.19,3.19,0,0,1-.39-2.52,30.26,30.26,0,0,0,.7-3.11c.15-.87.66-1.35,1.2-1S271.72,405.75,271.72,404.78Z" style="fill:#455a64"></path><path d="M260.57,338.68l-18.64,10.79-.08,0a.79.79,0,0,0-.31.71.93.93,0,0,1-1.3.91c-.28-.09-.55-.16-.82-.22a12.87,12.87,0,0,0-1.77-.35,2.11,2.11,0,0,1-1.07-.58l21.11-12.21a2.08,2.08,0,0,0,1.08.57C259.37,338.42,260,338.54,260.57,338.68Z" style="fill:#263238"></path><path d="M270.76,343.86l-21.14,12.2a3,3,0,0,1-.52-1.5,2.31,2.31,0,0,0-.38-1.15l21.14-12.21a2.37,2.37,0,0,1,.38,1.16A3,3,0,0,0,270.76,343.86Z"></path><path d="M275.3,347.88,255,359.63a.24.24,0,0,0-.1.05.35.35,0,0,0-.17.17.51.51,0,0,1-.58.23,2.12,2.12,0,0,1-1.18-.68c-.84-.85-1.7-1.66-2.58-2.42a3.69,3.69,0,0,1-.78-.92l21.14-12.2a4.31,4.31,0,0,0,.78.91c.88.75,1.74,1.56,2.59,2.42A2.15,2.15,0,0,0,275.3,347.88Z" style="fill:#263238"></path><path d="M287.13,364.56,266,376.76a.69.69,0,0,0-.56-.21c-.48.09-1.23-.66-1.73-1.66-.59-1.24-1.23-2.45-1.89-3.63a3.22,3.22,0,0,1-.51-2.59,1.16,1.16,0,0,0,.09-.64l21.13-12.2a.94.94,0,0,1-.09.62,3.31,3.31,0,0,0,.5,2.6c.68,1.17,1.3,2.38,1.9,3.62.5,1,1.25,1.77,1.73,1.68A.71.71,0,0,1,287.13,364.56Z" style="fill:#263238"></path><path d="M266,376.76l21.14-12.2a.71.71,0,0,0-.57-.21.6.6,0,0,1-.26,0l-21.13,12.2a.48.48,0,0,0,.26,0A.69.69,0,0,1,266,376.76Z"></path><path d="M282.43,356.45a.94.94,0,0,0,.09-.62L261.39,368a1.16,1.16,0,0,1-.09.64,1.49,1.49,0,0,0-.08.9l21.13-12.22A1.49,1.49,0,0,1,282.43,356.45Z"></path><path d="M292.52,384.47l-21.15,12.21a1.7,1.7,0,0,0-.63-.8,3.75,3.75,0,0,1-1.21-2.43c-.19-1.3-.43-2.59-.71-3.89a2.38,2.38,0,0,1,.17-1.94h0l.22-.13.2-.12,20.67-11.92a2.65,2.65,0,0,0-.15,1.9c.29,1.31.52,2.61.72,3.89a3.81,3.81,0,0,0,1.22,2.45A1.81,1.81,0,0,1,292.52,384.47Z" style="fill:#263238"></path><path d="M291.88,383.68a2.14,2.14,0,0,1-.72-.9L270,395a2.22,2.22,0,0,0,.72.9,1.7,1.7,0,0,1,.63.8l21.15-12.21A1.81,1.81,0,0,0,291.88,383.68Z"></path><path d="M290.74,401.32l-21.13,12.22a2.16,2.16,0,0,0-.36-.88,2.87,2.87,0,0,1-.45-1.19,3.1,3.1,0,0,1,.06-1.33,28.36,28.36,0,0,0,.7-3.11v0c.16-.86.66-1.33,1.2-1a.53.53,0,0,0,.57,0l19.37-11.19v0c-.2,1.09-.43,2.13-.7,3.11a3.11,3.11,0,0,0,.39,2.52A2,2,0,0,1,290.74,401.32Z" style="fill:#263238"></path><path d="M269.25,412.66a2.16,2.16,0,0,1,.36.88l21.13-12.22a2,2,0,0,0-.35-.87,2.43,2.43,0,0,1-.43-1.09l-21.13,12.2A2.64,2.64,0,0,0,269.25,412.66Z"></path><path d="M228.83,352.22a13.69,13.69,0,0,0-1.9,1.43,1.15,1.15,0,0,1-1.73-.32.89.89,0,0,0-1.12-.4l.06-.06,5.12-2.95c0,.09.05.2.07.3A1.71,1.71,0,0,1,228.83,352.22Z" style="fill:#263238"></path><path d="M282.06,411.64h0l-.05,0-.32.18-20.55,11.88-.14.07a1.22,1.22,0,0,0,.33-1.44,1.67,1.67,0,0,1,.54-1.93A13.21,13.21,0,0,0,263.8,419a1.1,1.1,0,0,1,1.67.25.9.9,0,0,0,1,.43l.19-.1,15.89-9.17A1.14,1.14,0,0,1,282.06,411.64Z"></path><path d="M251,421.76,248.8,423a.64.64,0,0,0,.3-.61c0-.69.59-1,1.31-.82Z" style="fill:#263238"></path><path d="M236.33,412.51l-.5.28,0-.06A.43.43,0,0,1,236.33,412.51Z" style="fill:#263238"></path><path d="M221.1,365.49c-.14.87-.68,1.34-1.21,1a.55.55,0,0,0-.44-.06l.14-.08.25-.15Z" style="fill:#263238"></path><path d="M257.69,337.76,236.58,350a2.47,2.47,0,0,1-.69-1,2,2,0,0,0-.73-1l21.14-12.2a2,2,0,0,1,.73,1A2.77,2.77,0,0,0,257.69,337.76Z"></path><path d="M284.36,394.24c0,10.65-3.55,18.16-9.15,21.39l-3.79,2.17c5.51-3.28,9-10.75,9-21.31C280.42,377,268.6,354.4,254,346c-6.3-3.64-12.09-4-16.63-1.75l3.25-1.88c4.64-2.69,10.69-2.44,17.31,1.38C272.52,352.15,284.36,374.78,284.36,394.24Z" style="fill:#37474f"></path><path d="M280.42,396.49c0,10.57-3.48,18-9,21.31l-2.54,1.46c5.51-3.26,9-10.73,9-21.28,0-19.46-11.84-42.09-26.43-50.52-6.53-3.77-12.51-4.06-17.12-1.48l3-1.76C241.9,342,247.69,342.34,254,346,268.6,354.41,280.42,377,280.42,396.49Z"></path><path d="M256.3,335.78,235.16,348a1.2,1.2,0,0,0-.92-.26l-1.76.34-2.5.48-.16,0,.27-.17,19.56-11.3.37-.21.36-.21.15-.08.19-.11.12-.07.13-.06a.37.37,0,0,1,.14,0l4.27-.82A1.12,1.12,0,0,1,256.3,335.78Z" style="fill:#37474f"></path><path d="M269.86,341.2l-21.14,12.21a2.85,2.85,0,0,0-.94-1l-4.93-2.84a1,1,0,0,0-.92-.15l18.64-10.79,1.57-.9.56-.32.3-.17a1,1,0,0,1,1,.12l4.92,2.84A3,3,0,0,1,269.86,341.2Z" style="fill:#37474f"></path><path d="M282.52,355.83,261.39,368a4,4,0,0,0-.74-1.78l-4.26-5.74c-.48-.64-1-1-1.38-.88l20.29-11.75.74-.42c.35-.21.95.12,1.48.83l4.27,5.75A3.65,3.65,0,0,1,282.52,355.83Z" style="fill:#37474f"></path><path d="M290.52,375.18l-.12.08-.31.18-20.67,11.92a2.22,2.22,0,0,0,0-2L267,378.29a3.48,3.48,0,0,0-1-1.53l21.14-12.2a3.5,3.5,0,0,1,.95,1.53l2.48,7.1C290.87,374.1,290.84,374.94,290.52,375.18Z" style="fill:#37474f"></path><path d="M292.86,386v6.56c0,.63-.18,1.08-.46,1.23l-1.7,1L271.33,406a1.55,1.55,0,0,0,.39-1.2v-6.57a3.5,3.5,0,0,0-.35-1.52h0l21.15-12.21A3.77,3.77,0,0,1,292.86,386Z" style="fill:#37474f"></path><path d="M290.56,402.71,288.1,407a1.09,1.09,0,0,1-.38.39l-1.16.66-.43.25-3.61,2.1-15.89,9.17a1.11,1.11,0,0,0,.33-.35l2.46-4.27a2.17,2.17,0,0,0,.19-1.39l21.13-12.22A2.09,2.09,0,0,1,290.56,402.71Z" style="fill:#37474f"></path><path d="M245.32,367c-8-4.6-14.44.28-14.44,10.91s6.46,23,14.44,27.59,14.44-.28,14.44-10.91S253.29,371.6,245.32,367Zm0,35.18c-6.6-3.81-11.95-14-11.95-22.83s5.35-12.84,11.95-9,11.94,14,11.94,22.83S251.91,406,245.32,402.18Z" style="fill:#BA68C8"></path><path d="M257.26,393.15a13.19,13.19,0,0,1-2.1,7.81c-2.15,2.92-5.75,3.57-9.84,1.22-6.61-3.81-11.95-14-11.95-22.82,0-6.15,2.61-10,6.44-10.42a8.93,8.93,0,0,1,5.51,1.38C251.92,374.13,257.26,384.36,257.26,393.15Z" style="fill:#BA68C8"></path><path d="M257.26,393.15a13.19,13.19,0,0,1-2.1,7.81c-2.15,2.92-5.75,3.57-9.84,1.22-6.61-3.81-11.95-14-11.95-22.82,0-6.15,2.61-10,6.44-10.42a8.93,8.93,0,0,1,5.51,1.38C251.92,374.13,257.26,384.36,257.26,393.15Z" style="opacity:0.4"></path><path d="M257.26,393.15a13.19,13.19,0,0,1-2.1,7.81,9.06,9.06,0,0,1-5.53-1.38c-6.6-3.8-11.94-14-11.94-22.82a13,13,0,0,1,2.12-7.82,8.93,8.93,0,0,1,5.51,1.38C251.92,374.13,257.26,384.36,257.26,393.15Z" style="fill:#263238"></path><path d="M243.7,380.75l-1.71,6-4.3-14.28a5.46,5.46,0,0,1,.82-2.9Z" style="fill:#BA68C8"></path><path d="M243.7,380.75l-1.71,6-4.3-14.28a5.46,5.46,0,0,1,.82-2.9Z" style="opacity:0.2"></path><path d="M241.56,384.73l4.46,6.89-3,3.61a9.16,9.16,0,0,1-2.3-3.38Z" style="fill:#BA68C8"></path><path d="M241.56,384.73l4.46,6.89-3,3.61a9.16,9.16,0,0,1-2.3-3.38Z" style="opacity:0.2"></path><path d="M256.52,398.21a8.76,8.76,0,0,1-1.17,2.46l-10.73-9.86,3.75-1.47.27,1.25,1.08-.46h0Z" style="fill:#BA68C8"></path><path d="M256.52,398.21a8.76,8.76,0,0,1-1.17,2.46l-10.73-9.86,3.75-1.47.27,1.25,1.08-.46h0Z" style="opacity:0.2"></path><path d="M256.81,388.55l-7.09,1.58h0l-.65-1.06-.7.27-1.16-5.45.86.49L248,383l7.16,0A30,30,0,0,1,256.81,388.55Z" style="fill:#BA68C8"></path><path d="M256.81,388.55l-7.09,1.58h0l-.65-1.06-.7.27-1.16-5.45.86.49L248,383l7.16,0A30,30,0,0,1,256.81,388.55Z" style="opacity:0.2"></path><path d="M248,383l-1.07-.34.27,1.26-4.65-2.7,4.09-10a20.51,20.51,0,0,1,3.46,3.24Z" style="fill:#BA68C8"></path><path d="M248,383l-1.07-.34.27,1.26-4.65-2.7,4.09-10a20.51,20.51,0,0,1,3.46,3.24Z" style="opacity:0.2"></path><path d="M249.84,388.86c0,3.33-2,4.86-4.52,3.42s-4.52-5.31-4.52-8.64,2-4.86,4.52-3.41S249.84,385.53,249.84,388.86Z" style="fill:#BA68C8"></path><path d="M149.2,301.24A3.74,3.74,0,0,1,148,298.8c-.19-1.29-.43-2.59-.71-3.89a2.62,2.62,0,0,1,.13-1.9l.39-.23c.37-.21.41-1.07.08-2l-2.46-7.1c-.37-1-1-1.83-1.53-1.74s-1.24-.67-1.73-1.67c-.6-1.24-1.23-2.45-1.9-3.63a3.34,3.34,0,0,1-.51-2.59,2.74,2.74,0,0,0-.64-2.42l-4.26-5.74c-.53-.71-1.14-1-1.48-.84l-.74.43a2.17,2.17,0,0,1-1.18-.7c-.84-.85-1.71-1.66-2.59-2.41a3.78,3.78,0,0,1-1.3-2.42,2.78,2.78,0,0,0-1.32-2.11L121.31,255a1,1,0,0,0-1-.11l-2.41,1.39a17,17,0,0,0-1.81-.35,2.47,2.47,0,0,1-1.75-1.59,1.65,1.65,0,0,0-1.65-1.23l-4.26.82a.79.79,0,0,0-.27.1L87,266.21a1.17,1.17,0,0,0-.45,1.27s-4.88,2.81-5.24,3a1,1,0,0,0-.35.37l-2.46,4.26a2.26,2.26,0,0,0,.2,2.29,3.26,3.26,0,0,1,.4,2.56,29.44,29.44,0,0,0-.71,3.07l-1.74,1a1.41,1.41,0,0,0-.45,1.23v6.56a2.93,2.93,0,0,0,1,2.32,3.75,3.75,0,0,1,1.2,2.43c.18,1.3.42,2.61.7,3.92a2.64,2.64,0,0,1-.13,1.91l-.37.21c-.36.21-.39,1.06-.06,2l2.46,7.1c.37,1.05,1,1.84,1.49,1.75s1.19.68,1.68,1.68c.61,1.27,1.25,2.5,1.93,3.71a3.34,3.34,0,0,1,.54,2.54c-.27.46,0,1.51.67,2.37l4.26,5.74c.54.72,1.14,1.07,1.47.88l.64-.37a2.25,2.25,0,0,1,1.22.72c.87.89,1.75,1.72,2.66,2.5a3.66,3.66,0,0,1,1.3,2.31,2.69,2.69,0,0,0,1.32,2l4.92,2.84a1.1,1.1,0,0,0,1,.14l2.19-1.27a18.25,18.25,0,0,0,2.08.42,2.31,2.31,0,0,1,1.71,1.47,1.57,1.57,0,0,0,1.62,1.13l4.26-.82a1,1,0,0,0,.29-.11l21.12-12.2a1.15,1.15,0,0,0,.46-1.27l5.2-3a1.07,1.07,0,0,0,.37-.39l2.46-4.26a2.24,2.24,0,0,0-.17-2.26,3.21,3.21,0,0,1-.39-2.53,30.26,30.26,0,0,0,.7-3.11v0l1.7-1a1.39,1.39,0,0,0,.46-1.23v-6.56A2.93,2.93,0,0,0,149.2,301.24Z" style="fill:#37474f"></path><path d="M129,322.34v-6.56a2.93,2.93,0,0,0-1-2.33,3.79,3.79,0,0,1-1.22-2.44c-.19-1.29-.42-2.59-.71-3.89-.23-1.06-.06-2,.41-2.08s.56-1,.19-2.08l-2.46-7.1c-.36-1.05-1-1.83-1.52-1.74s-1.24-.67-1.73-1.67c-.6-1.24-1.23-2.44-1.9-3.63a3.26,3.26,0,0,1-.51-2.59,2.74,2.74,0,0,0-.64-2.42l-4.26-5.74c-.64-.85-1.38-1.15-1.65-.67s-1.06.27-1.76-.43c-.84-.86-1.7-1.67-2.58-2.42a3.73,3.73,0,0,1-1.3-2.42,2.79,2.79,0,0,0-1.33-2.11l-4.92-2.84c-.73-.42-1.32-.16-1.32.59a.93.93,0,0,1-1.3.91,17,17,0,0,0-2.59-.57,2.47,2.47,0,0,1-1.75-1.59,1.66,1.66,0,0,0-1.65-1.23l-4.26.82c-.63.12-.92.87-.65,1.67a1.74,1.74,0,0,1-.5,2,13,13,0,0,0-1.91,1.42,1.15,1.15,0,0,1-1.72-.31c-.48-.65-1.16-.66-1.53,0l-2.46,4.26a2.26,2.26,0,0,0,.2,2.29,3.26,3.26,0,0,1,.4,2.56,29.44,29.44,0,0,0-.71,3.07c-.15.86-.68,1.34-1.22,1s-1,.23-1,1.2v6.56a2.93,2.93,0,0,0,1,2.32,3.75,3.75,0,0,1,1.2,2.43c.18,1.3.42,2.61.7,3.92.23,1.06.07,2-.39,2.08s-.53,1-.17,2.07l2.46,7.1c.37,1.05,1,1.84,1.49,1.75s1.19.68,1.68,1.68c.61,1.27,1.25,2.5,1.93,3.71a3.34,3.34,0,0,1,.54,2.54c-.27.46,0,1.51.67,2.37l4.26,5.74c.63.85,1.36,1.18,1.62.73s1-.2,1.71.5c.87.89,1.75,1.72,2.66,2.5a3.66,3.66,0,0,1,1.3,2.31,2.69,2.69,0,0,0,1.32,2l4.92,2.84c.73.42,1.33.2,1.33-.48s.58-1,1.3-.81a17.92,17.92,0,0,0,2.66.58,2.31,2.31,0,0,1,1.71,1.47,1.57,1.57,0,0,0,1.62,1.13l4.26-.82a1.12,1.12,0,0,0,.67-1.58,1.66,1.66,0,0,1,.54-1.93,12.86,12.86,0,0,0,1.93-1.48,1.12,1.12,0,0,1,1.68.26.82.82,0,0,0,1.48,0l2.46-4.26a2.22,2.22,0,0,0-.17-2.26,3.25,3.25,0,0,1-.38-2.53,30.26,30.26,0,0,0,.7-3.11c.14-.87.66-1.35,1.19-1S129,323.32,129,322.34Z" style="fill:#455a64"></path><path d="M117.89,256.24,99.24,267l-.07,0a.78.78,0,0,0-.32.7.93.93,0,0,1-1.3.91c-.27-.09-.54-.15-.82-.22a14.19,14.19,0,0,0-1.77-.35,2,2,0,0,1-1.06-.57L115,255.32a2.08,2.08,0,0,0,1.08.57C116.69,256,117.27,256.1,117.89,256.24Z" style="fill:#263238"></path><path d="M128.07,261.42l-21.14,12.21a3.14,3.14,0,0,1-.52-1.5A2.24,2.24,0,0,0,106,271l21.15-12.2a2.32,2.32,0,0,1,.37,1.16A3.11,3.11,0,0,0,128.07,261.42Z"></path><path d="M132.61,265.44l-20.28,11.75-.1.05a.35.35,0,0,0-.17.17.5.5,0,0,1-.59.23,2.07,2.07,0,0,1-1.17-.67c-.84-.86-1.7-1.67-2.59-2.42a3.88,3.88,0,0,1-.78-.92l21.14-12.21a4.35,4.35,0,0,0,.78.91c.89.76,1.75,1.56,2.59,2.42A2.12,2.12,0,0,0,132.61,265.44Z" style="fill:#263238"></path><path d="M144.45,282.12l-21.14,12.2a.72.72,0,0,0-.56-.21c-.48.1-1.23-.66-1.73-1.66-.6-1.24-1.23-2.45-1.9-3.63a3.3,3.3,0,0,1-.51-2.59,1.07,1.07,0,0,0,.1-.64l21.12-12.2a1,1,0,0,1-.09.63,3.33,3.33,0,0,0,.51,2.6c.68,1.17,1.3,2.38,1.9,3.61.49,1,1.25,1.77,1.73,1.68A.71.71,0,0,1,144.45,282.12Z" style="fill:#263238"></path><path d="M123.31,294.32l21.14-12.2a.71.71,0,0,0-.57-.21.48.48,0,0,1-.26,0l-21.14,12.2a.52.52,0,0,0,.27,0A.72.72,0,0,1,123.31,294.32Z"></path><path d="M139.74,274a1,1,0,0,0,.09-.63l-21.12,12.2a1.07,1.07,0,0,1-.1.64,1.61,1.61,0,0,0-.07.91l21.13-12.22A1.58,1.58,0,0,1,139.74,274Z"></path><path d="M149.84,302l-21.16,12.2a1.6,1.6,0,0,0-.62-.79,3.76,3.76,0,0,1-1.21-2.44c-.2-1.3-.43-2.58-.72-3.89a2.45,2.45,0,0,1,.17-1.93l0,0,.22-.13.19-.11L147.4,293a2.6,2.6,0,0,0-.14,1.9c.29,1.3.52,2.6.72,3.89a3.7,3.7,0,0,0,1.22,2.44A1.92,1.92,0,0,1,149.84,302Z" style="fill:#263238"></path><path d="M149.2,301.24a2.15,2.15,0,0,1-.73-.9l-21.13,12.21a2.21,2.21,0,0,0,.72.9,1.6,1.6,0,0,1,.62.79L149.84,302A1.92,1.92,0,0,0,149.2,301.24Z"></path><path d="M148.06,318.88,126.93,331.1a2.19,2.19,0,0,0-.37-.87,2.86,2.86,0,0,1-.44-1.2,3.12,3.12,0,0,1,0-1.33,27.64,27.64,0,0,0,.71-3.1v0c.15-.86.66-1.33,1.19-1a.51.51,0,0,0,.58,0L148,312.35v0c-.2,1.09-.43,2.13-.71,3.11a3.19,3.19,0,0,0,.39,2.52A2,2,0,0,1,148.06,318.88Z" style="fill:#263238"></path><path d="M126.56,330.23a2.19,2.19,0,0,1,.37.87l21.13-12.22a2,2,0,0,0-.36-.87,2.69,2.69,0,0,1-.43-1.08l-21.13,12.19A3,3,0,0,0,126.56,330.23Z"></path><path d="M86.14,269.79a12.77,12.77,0,0,0-1.9,1.43,1.16,1.16,0,0,1-1.73-.33.89.89,0,0,0-1.11-.4l.06-.05,5.11-3c0,.1.05.2.08.3A1.71,1.71,0,0,1,86.14,269.79Z" style="fill:#263238"></path><path d="M139.38,329.2h0l-.05,0-.31.18L118.45,341.3l-.15.08a1.23,1.23,0,0,0,.34-1.45,1.66,1.66,0,0,1,.53-1.92,12.86,12.86,0,0,0,1.94-1.47,1.1,1.1,0,0,1,1.68.25.86.86,0,0,0,1,.42l.2-.1,15.88-9.17A1.12,1.12,0,0,1,139.38,329.2Z"></path><path d="M108.3,339.32l-2.19,1.26a.62.62,0,0,0,.3-.61c0-.69.6-1,1.32-.82Z" style="fill:#263238"></path><path d="M93.65,330.07l-.51.29s0,0,0-.07A.44.44,0,0,1,93.65,330.07Z" style="fill:#263238"></path><path d="M78.42,283.06c-.15.87-.68,1.34-1.21,1a.57.57,0,0,0-.45-.06l.15-.08.24-.14Z" style="fill:#263238"></path><path d="M115,255.32,93.9,267.54a2.5,2.5,0,0,1-.69-1,2,2,0,0,0-.73-1l21.14-12.21a2,2,0,0,1,.73,1A2.61,2.61,0,0,0,115,255.32Z"></path><path d="M141.67,311.8c0,10.66-3.55,18.16-9.14,21.39-1.65.95-2.38,1.35-3.79,2.17,5.51-3.28,9-10.74,9-21.31,0-19.46-11.83-42.08-26.44-50.51-6.29-3.65-12.08-4-16.62-1.76,1.45-.83,1.7-1,3.24-1.87,4.65-2.69,10.7-2.45,17.32,1.38C129.84,269.72,141.67,292.34,141.67,311.8Z" style="fill:#37474f"></path><path d="M137.74,314.06c0,10.56-3.49,18-9,21.31l-2.54,1.45c5.5-3.26,9-10.73,9-21.28,0-19.46-11.84-42.08-26.44-50.51-6.53-3.78-12.5-4.06-17.12-1.49l3.05-1.75c4.54-2.28,10.33-1.89,16.62,1.75C125.91,272,137.74,294.6,137.74,314.06Z"></path><path d="M113.62,253.34,92.48,265.55a1.14,1.14,0,0,0-.92-.26l-1.76.33-2.5.49a.55.55,0,0,0-.17.05l.28-.17L107,254.68l.37-.2.36-.21.14-.08.2-.12.12-.06.13-.07a.74.74,0,0,1,.14,0l4.27-.82A1.18,1.18,0,0,1,113.62,253.34Z" style="fill:#37474f"></path><path d="M127.18,258.77,106,271a2.82,2.82,0,0,0-.93-1l-4.93-2.83a1.08,1.08,0,0,0-.93-.16l18.65-10.79,1.57-.89L120,255l.3-.17a1.05,1.05,0,0,1,1,.12l4.92,2.85A3,3,0,0,1,127.18,258.77Z" style="fill:#37474f"></path><path d="M139.83,273.39l-21.12,12.2a4,4,0,0,0-.75-1.78l-4.25-5.74c-.48-.63-1-1-1.38-.88l20.28-11.75.74-.41c.36-.21,1,.11,1.49.83l4.26,5.75A3.62,3.62,0,0,1,139.83,273.39Z" style="fill:#37474f"></path><path d="M147.83,292.75l-.11.08-.32.18-20.67,11.92a2.21,2.21,0,0,0,0-2l-2.46-7.1a3.52,3.52,0,0,0-1-1.54l21.14-12.2a3.63,3.63,0,0,1,1,1.54l2.47,7.1C148.19,291.67,148.16,292.5,147.83,292.75Z" style="fill:#37474f"></path><path d="M150.18,303.57v6.56a1.42,1.42,0,0,1-.46,1.24l-1.7,1-19.37,11.19a1.54,1.54,0,0,0,.39-1.19v-6.57a3.41,3.41,0,0,0-.36-1.53h0L149.84,302A3.69,3.69,0,0,1,150.18,303.57Z" style="fill:#37474f"></path><path d="M147.87,320.28l-2.46,4.26a.88.88,0,0,1-.37.39l-1.16.67-.43.24-3.62,2.1L124,337.11a1,1,0,0,0,.32-.35l2.46-4.27a2.17,2.17,0,0,0,.2-1.39l21.13-12.22A2.12,2.12,0,0,1,147.87,320.28Z" style="fill:#37474f"></path><path d="M102.63,284.56c-8-4.6-14.44.29-14.44,10.92s6.47,23,14.44,27.59,14.44-.29,14.44-10.92S110.61,289.17,102.63,284.56Zm0,35.18c-6.59-3.81-11.94-14-11.94-22.82s5.35-12.84,11.94-9,12,14,12,22.82S109.23,323.55,102.63,319.74Z" style="fill:#BA68C8"></path><path d="M114.58,310.71a13.08,13.08,0,0,1-2.11,7.81c-2.14,2.93-5.75,3.58-9.83,1.22-6.61-3.81-12-14-12-22.82,0-6.15,2.62-10,6.44-10.42a9.08,9.08,0,0,1,5.52,1.38C109.24,291.69,114.58,301.92,114.58,310.71Z" style="fill:#BA68C8"></path><path d="M114.58,310.71a13.08,13.08,0,0,1-2.11,7.81c-2.14,2.93-5.75,3.58-9.83,1.22-6.61-3.81-12-14-12-22.82,0-6.15,2.62-10,6.44-10.42a9.08,9.08,0,0,1,5.52,1.38C109.24,291.69,114.58,301.92,114.58,310.71Z" style="opacity:0.4"></path><path d="M114.58,310.71a13.08,13.08,0,0,1-2.11,7.81,8.89,8.89,0,0,1-5.52-1.38c-6.6-3.8-12-14-12-22.82a13.06,13.06,0,0,1,2.12-7.82,9.08,9.08,0,0,1,5.52,1.38C109.24,291.69,114.58,301.92,114.58,310.71Z" style="fill:#263238"></path><path d="M101,298.32l-1.7,6L95,290a5.61,5.61,0,0,1,.82-2.89Z" style="fill:#BA68C8"></path><path d="M101,298.32l-1.7,6L95,290a5.61,5.61,0,0,1,.82-2.89Z" style="opacity:0.2"></path><path d="M98.88,302.29l4.45,6.89-3,3.61A9.3,9.3,0,0,1,98,309.42Z" style="fill:#BA68C8"></path><path d="M98.88,302.29l4.45,6.89-3,3.61A9.3,9.3,0,0,1,98,309.42Z" style="opacity:0.2"></path><path d="M113.84,315.78a9.12,9.12,0,0,1-1.17,2.45l-10.73-9.86,3.74-1.47.28,1.25,1.08-.46h0Z" style="fill:#BA68C8"></path><path d="M113.84,315.78a9.12,9.12,0,0,1-1.17,2.45l-10.73-9.86,3.74-1.47.28,1.25,1.08-.46h0Z" style="opacity:0.2"></path><path d="M114.13,306.11,107,307.69h0l-.65-1.06-.71.27-1.15-5.45.85.5,0-1.42,7.16,0A30,30,0,0,1,114.13,306.11Z" style="fill:#BA68C8"></path><path d="M114.13,306.11,107,307.69h0l-.65-1.06-.71.27-1.15-5.45.85.5,0-1.42,7.16,0A30,30,0,0,1,114.13,306.11Z" style="opacity:0.2"></path><path d="M105.33,300.53l-1.08-.34.28,1.26-4.65-2.69,4.09-10a20.92,20.92,0,0,1,3.46,3.24Z" style="fill:#BA68C8"></path><path d="M105.33,300.53l-1.08-.34.28,1.26-4.65-2.69,4.09-10a20.92,20.92,0,0,1,3.46,3.24Z" style="opacity:0.2"></path><path d="M107.15,306.42c0,3.33-2,4.86-4.52,3.42s-4.52-5.31-4.52-8.63,2-4.86,4.52-3.42S107.15,303.1,107.15,306.42Z" style="fill:#BA68C8"></path><path d="M291.82,351.94l-3.22-7.43a9.16,9.16,0,0,0-3.27-3.68L247.55,319a2.32,2.32,0,0,0-2.37,0c-.42.23-21.14,12.2-21.14,12.2h0a2.45,2.45,0,0,0-1,1.07l-7.86,16.89L165,320.2a7.62,7.62,0,0,1-3-3.79l-16.39-54.17a7.49,7.49,0,0,0-3-3.79l-35.13-20.28a2.62,2.62,0,0,0-2.6,0l-21,12.16-.06,0,0,0-.26.15-.26.22a2.88,2.88,0,0,0-.43.56l-5.32,9.23a11.61,11.61,0,0,0-1.3,4.85V275L85.47,259A2.61,2.61,0,0,1,89,258l8.31,4.8,22.1,12.76a7.6,7.6,0,0,1,3,3.79l16.41,54.18a7.65,7.65,0,0,0,3,3.8l64.19,37.06a2.07,2.07,0,0,0,.6.25,1.77,1.77,0,0,0,.29.05,1.05,1.05,0,0,0,.3,0,2.57,2.57,0,0,0,.67-.09,1.86,1.86,0,0,0,.46-.19l.1-.06a2.06,2.06,0,0,0,.6-.54.67.67,0,0,0,.11-.14,2.88,2.88,0,0,0,.22-.38l15.72-33.74a2.35,2.35,0,0,1,3.36-1.06l9.91,5.73,20.53,11.85a11.35,11.35,0,0,1,3.55,3.55l9.24,16,21.13-12.21v-6.55A15,15,0,0,0,291.82,351.94Z" style="fill:#BA68C8"></path><path d="M291.82,351.94l-3.22-7.43a9.16,9.16,0,0,0-3.27-3.68L247.55,319a2.32,2.32,0,0,0-2.37,0c-.42.23-21.14,12.2-21.14,12.2h0a2.45,2.45,0,0,0-1,1.07l-7.86,16.89L165,320.2a7.62,7.62,0,0,1-3-3.79l-16.39-54.17a7.49,7.49,0,0,0-3-3.79l-35.13-20.28a2.62,2.62,0,0,0-2.6,0l-21,12.16-.06,0,0,0-.26.15-.26.22a2.88,2.88,0,0,0-.43.56l-5.32,9.23a11.61,11.61,0,0,0-1.3,4.85V275L85.47,259A2.61,2.61,0,0,1,89,258l8.31,4.8,22.1,12.76a7.6,7.6,0,0,1,3,3.79l16.41,54.18a7.65,7.65,0,0,0,3,3.8l64.19,37.06a2.07,2.07,0,0,0,.6.25,2,2,0,0,0,.59.08,2.57,2.57,0,0,0,.67-.09,1.86,1.86,0,0,0,.46-.19l.1-.06a2.35,2.35,0,0,0,.6-.54.67.67,0,0,0,.11-.14,2.88,2.88,0,0,0,.22-.38l15.72-33.74a2.35,2.35,0,0,1,3.36-1.06l9.91,5.73,20.53,11.85a11.35,11.35,0,0,1,3.55,3.55l9.24,16,21.13-12.21v-6.55A15,15,0,0,0,291.82,351.94Z" style="opacity:0.4"></path><path d="M271.73,375.69l21.13-12.21v-6.55a13.43,13.43,0,0,0-.28-2.43l-24.8,14.32Z" style="opacity:0.2"></path><path d="M291.82,351.94l-3.21-7.43a8.45,8.45,0,0,0-1.46-2.13l-26.33,15.2a10.68,10.68,0,0,1,1.67,2.07l5.29,9.17,24.8-14.32A13.45,13.45,0,0,0,291.82,351.94Z" style="opacity:0.1"></path><path d="M163.69,319.08a7.31,7.31,0,0,1-1.65-2.67l-16.39-54.17a6.94,6.94,0,0,0-1.25-2.2l-25.92,15,1,.56a7.51,7.51,0,0,1,3,3.79l16.39,54.08Z" style="opacity:0.1"></path><path d="M138.87,333.53l-16.42-54.18a7.51,7.51,0,0,0-3-3.79L89,258a2.6,2.6,0,0,0-3.55.95L76.21,275v-9.6a11.39,11.39,0,0,1,1.3-4.85l5.32-9.23a2.61,2.61,0,0,1,3.56-.95l35.13,20.28a7.59,7.59,0,0,1,3,3.79l16.39,54.17a7.62,7.62,0,0,0,3,3.79L204,367.1a2.33,2.33,0,0,0,3.35-1.06l15.71-33.76a2.34,2.34,0,0,1,3.35-1.06L264.2,353a9.2,9.2,0,0,1,3.28,3.69l3.22,7.43a14.91,14.91,0,0,1,1,5v6.56l-9.24-16a11.49,11.49,0,0,0-3.55-3.56L228.5,338.52a2.34,2.34,0,0,0-3.35,1.06l-15.73,33.75a2.34,2.34,0,0,1-3.35,1.05l-64.19-37.06A7.47,7.47,0,0,1,138.87,333.53Z" style="fill:#BA68C8"></path><path d="M271.73,369.14v6.55l-9.24-16a11.35,11.35,0,0,0-3.55-3.55l-20.53-11.85-9.91-5.73a2.35,2.35,0,0,0-3.36,1.06l-15.72,33.74a2.88,2.88,0,0,1-.22.38.67.67,0,0,1-.11.14,2.06,2.06,0,0,1-.6.54l-.1.06a1.86,1.86,0,0,1-.46.19,2.57,2.57,0,0,1-.67.09,1.05,1.05,0,0,1-.3,0,1.77,1.77,0,0,1-.29-.05,2.07,2.07,0,0,1-.6-.25l-64.19-37.06a7.65,7.65,0,0,1-3-3.8l-16.41-54.18a7.6,7.6,0,0,0-3-3.79L97.34,262.8,89,258a2.61,2.61,0,0,0-3.56.95L76.21,275v-9.6a11.61,11.61,0,0,1,1.3-4.85l5.32-9.23a2.88,2.88,0,0,1,.43-.56l.26-.22.28-.18.06,0a2.63,2.63,0,0,1,2.52.05l35.13,20.29a7.52,7.52,0,0,1,3,3.78l16.39,54.17a7.56,7.56,0,0,0,3,3.79L204,367.11a2.34,2.34,0,0,0,3.35-1.07l7.85-16.87,7.86-16.89a2.45,2.45,0,0,1,1-1.07,2.28,2.28,0,0,1,2.39,0L264.2,353a9.19,9.19,0,0,1,3.29,3.68l3.21,7.43A14.83,14.83,0,0,1,271.73,369.14Z" style="opacity:0.55"></path><path d="M281.1,332.28v6.1L247.55,319a2.32,2.32,0,0,0-2.37,0c-.42.23-21.14,12.2-21.14,12.2h0a2.45,2.45,0,0,0-1,1.07l-12.34,26.5-55.33-31.94a7.53,7.53,0,0,1-3-3.78L136,268.89a7.56,7.56,0,0,0-3-3.79L96.94,244.26a2.62,2.62,0,0,0-2.61,0l-2.27,1.32V223.14l111,64.07,9.06-12.36v17.59Z" style="fill:#BA68C8"></path><path d="M281.1,332.28v6.1L247.55,319a2.32,2.32,0,0,0-2.37,0c-.42.23-21.14,12.2-21.14,12.2h0a2.45,2.45,0,0,0-1,1.07l-12.34,26.5-55.33-31.94a7.53,7.53,0,0,1-3-3.78L136,268.89a7.56,7.56,0,0,0-3-3.79L96.94,244.26a2.62,2.62,0,0,0-2.61,0l-2.27,1.32V223.14l111,64.07,9.06-12.36v17.59Z" style="opacity:0.12"></path><polygon points="155.48 265.69 155.48 323.66 158.13 267.22 155.48 265.69" style="opacity:0.2"></polygon><path d="M181.24,280.73a1.28,1.28,0,0,1,.65,1.13v2.3c0,1.68-2.52,1.59-5.63-.2l-4.58-2.65c-3.11-1.8-5.63-4.62-5.63-6.31v-1.93a.65.65,0,0,1,1-.56Z" style="fill:#263238"></path><path d="M361.84,332.28a12.36,12.36,0,0,0-5.61-9.7,3.93,3.93,0,0,0-3.93-.41h0l-50.44,29.11L309.8,365l50.39-29.09h0l0,0h0A4,4,0,0,0,361.84,332.28Z" style="fill:#BA68C8"></path><path d="M361.84,332.28a12.36,12.36,0,0,0-5.61-9.7,3.93,3.93,0,0,0-3.93-.41h0l-50.44,29.11L309.8,365l50.39-29.09h0l0,0h0A4,4,0,0,0,361.84,332.28Z" style="fill:#fff;opacity:0.6000000000000001"></path><path d="M305.8,364.63c3.09,1.79,5.6.34,5.6-3.24a12.38,12.38,0,0,0-5.6-9.7c-3.1-1.79-5.61-.34-5.61,3.23A12.38,12.38,0,0,0,305.8,364.63Z" style="fill:#BA68C8"></path><path d="M305.8,364.63c3.09,1.79,5.6.34,5.6-3.24a12.38,12.38,0,0,0-5.6-9.7c-3.1-1.79-5.61-.34-5.61,3.23A12.38,12.38,0,0,0,305.8,364.63Z" style="fill:#fff;opacity:0.30000000000000004"></path><path d="M388,323.62v-8.95l-10.57,6.1v3.05a6.06,6.06,0,0,1-2.81,4.68L306.26,368a14.3,14.3,0,0,1-6.07,1.62h-7.32l-10.57,6.11v12.2h17.89a14.31,14.31,0,0,0,6.07-1.63l78.92-45.56a6.23,6.23,0,0,0,2.81-4.88v-12.2ZM377.42,333Z" style="fill:#37474f"></path><path d="M303.44,369.07a13.19,13.19,0,0,1-3.25.51h-7.32l-10.57,6.11v12.2h17.89a13.19,13.19,0,0,0,3.25-.51Z" style="fill:#263238"></path><path d="M300.19,369.58a14.3,14.3,0,0,0,6.07-1.62l68.35-39.46a6.06,6.06,0,0,0,2.81-4.68v-3.05l10.57-6.1v8.95a6.25,6.25,0,0,1-2.81,4.88l-78.92,45.56a14.31,14.31,0,0,1-6.07,1.63H282.3l10.57-6.11Z" style="fill:#455a64"></path><path d="M202.14,125.1a8.87,8.87,0,0,0-13.27,6.79l-4.3,42.22h0a1.25,1.25,0,0,0,.76,1.1,4,4,0,0,0,3.68,0,1.32,1.32,0,0,0,.76-1h0l4.26-41.8a3.67,3.67,0,0,1,5.49-2.81L244,155.25l2.61-4.5Z" style="fill:#BA68C8"></path><path d="M202.14,125.1a8.87,8.87,0,0,0-13.27,6.79l-4.3,42.22h0a1.25,1.25,0,0,0,.76,1.1,4,4,0,0,0,3.68,0,1.32,1.32,0,0,0,.76-1h0l4.26-41.8a3.67,3.67,0,0,1,5.49-2.81L244,155.25l2.61-4.5Z" style="opacity:0.30000000000000004"></path><path d="M244.78,153.89l-45-25.94a5.07,5.07,0,0,0-7.57,3.85l-4.73,43.82a3.59,3.59,0,0,0,1.5-.41,1.32,1.32,0,0,0,.76-1h0l4.26-41.8a3.67,3.67,0,0,1,5.49-2.81L244,155.25Z" style="opacity:0.15"></path><path d="M118.48,201.78l74-42.71h0A17.23,17.23,0,0,1,201,172.78l2,22.9-74,42.71-10.57-6.1Z" style="fill:#37474f"></path><path d="M118.48,210.55l79.92-45.77a17,17,0,0,0-5.93-5.71l-74,42.71Z" style="fill:#455a64"></path><path d="M118.48,232.29V201.78h0a17.21,17.21,0,0,1,8.57,13.71l2,22.9Z" style="fill:#263238"></path><polygon points="127.04 215.49 129.05 238.39 146.59 248.52 204.73 214.96 201.03 172.78 127.04 215.49" style="fill:#37474f"></polygon><polygon points="204.73 214.96 245.31 238.39 187.18 271.95 146.59 248.52 204.73 214.96" style="fill:#455a64"></polygon><path d="M117.61,173.86a8.88,8.88,0,0,0-13.27,6.79L100,222.87h0a1.27,1.27,0,0,0,.76,1.11,4.07,4.07,0,0,0,3.69,0,1.34,1.34,0,0,0,.75-1h0l4.26-41.8a3.67,3.67,0,0,1,5.49-2.81L159.47,204l2.6-4.51Z" style="fill:#BA68C8"></path><path d="M117.61,173.86a8.88,8.88,0,0,0-13.27,6.79L100,222.87h0a1.27,1.27,0,0,0,.76,1.11,4.07,4.07,0,0,0,3.69,0,1.34,1.34,0,0,0,.75-1h0l4.26-41.8a3.67,3.67,0,0,1,5.49-2.81L159.47,204l2.6-4.51Z" style="opacity:0.30000000000000004"></path><path d="M160.25,202.66,115.3,176.72a5.07,5.07,0,0,0-7.58,3.84L103,224.38a3.63,3.63,0,0,0,1.51-.4,1.34,1.34,0,0,0,.75-1h0l4.26-41.8a3.67,3.67,0,0,1,5.49-2.81L159.47,204Z" style="opacity:0.15"></path><polygon points="158.12 261.27 160.77 259.75 160.77 201.76 158.12 203.31 158.12 261.27" style="fill:#BA68C8"></polygon><polygon points="158.12 261.27 160.77 259.75 160.77 201.76 158.12 203.31 158.12 261.27" style="fill:#fff;opacity:0.30000000000000004"></polygon><polygon points="158.12 203.31 155.48 198.73 155.48 259.75 158.12 261.27 158.12 203.31" style="fill:#BA68C8"></polygon><polygon points="158.12 203.31 155.48 198.73 155.48 259.75 158.12 261.27 158.12 203.31" style="fill:#fff;opacity:0.6000000000000001"></polygon><polygon points="245.31 152.96 245.18 204.91 247.82 203.38 247.95 151.44 245.31 152.96" style="fill:#BA68C8"></polygon><polygon points="245.31 152.96 245.18 204.91 247.82 203.38 247.95 151.44 245.31 152.96" style="fill:#fff;opacity:0.30000000000000004"></polygon><polygon points="245.18 204.91 242.53 203.38 242.67 154.49 245.31 152.96 245.18 204.91" style="fill:#BA68C8"></polygon><polygon points="245.18 204.91 242.53 203.38 242.67 154.49 245.31 152.96 245.18 204.91" style="fill:#fff;opacity:0.6000000000000001"></polygon><polygon points="245.29 156.44 247.94 154.91 247.95 154.49 245.31 152.96 242.67 154.49 242.67 154.92 245.29 156.44" style="opacity:0.1"></polygon><polyline points="158.12 203.31 158.12 206.36 160.77 204.84" style="opacity:0.1"></polyline><line x1="160.77" y1="204.84" x2="158.12" y2="203.31" style="opacity:0.1"></line><g style="clip-path:url(#freepik--clip-path--inject-144)"><path d="M217,269.23l12-.23,18.31-10.49a13.7,13.7,0,0,1,11.09-.53l22.19,10,15.22-.3v8.88h0c0,1-.71,2-2.15,2.86l-39.84,23a9.72,9.72,0,0,1-10.24-.81l-24.75-20.09a4.4,4.4,0,0,1-1.82-3.4l0,0Z" style="fill:#37474f"></path><path d="M217,269.24v8.87l0,0a4.39,4.39,0,0,0,1.82,3.41l24.75,20.08a9.1,9.1,0,0,0,4.84,1.85v-8.88a9,9,0,0,1-4.84-1.85l-24.75-20.09A4.44,4.44,0,0,1,217,269.24Z" style="fill:#263238"></path><path d="M293.67,270.55l-39.84,23a9.74,9.74,0,0,1-10.24-.81l-24.75-20.09c-2.67-2.17-2.42-5.32.57-7l27.92-16a13.74,13.74,0,0,1,11.09-.54l35,15.78C296.52,266.28,296.65,268.82,293.67,270.55Z" style="fill:#455a64"></path><path d="M262.27,259.08c6.28,1.12,12.5,4.33,18.67,9a2.76,2.76,0,0,1,0,4.61,123.13,123.13,0,0,1-24,13.77,8.88,8.88,0,0,1-6.79-.18A59.61,59.61,0,0,1,235.79,276a3.19,3.19,0,0,1,.46-4.94,101,101,0,0,1,18.83-11A15,15,0,0,1,262.27,259.08Z" style="fill:#BA68C8"></path><g style="opacity:0.2"><path d="M277.58,270.35l-1.07.32c-.67.21-1.64.51-2.78.94a59,59,0,0,0-8.05,3.78,54.2,54.2,0,0,0-7.37,5,39.31,39.31,0,0,0-3,2.71l3.42-2.13c2-1.27,4.78-2.93,7.56-4.5s5.61-3.08,7.74-4.21l2.57-1.37C277.23,270.56,277.58,270.35,277.58,270.35Z"></path><path d="M271.59,266.9l-1.07.32c-.67.22-1.64.51-2.77.95a57.24,57.24,0,0,0-8.06,3.77,54.33,54.33,0,0,0-7.36,5,38.5,38.5,0,0,0-3,2.71l3.42-2.13c2-1.27,4.78-2.93,7.56-4.5s5.61-3.08,7.74-4.2l2.57-1.38C271.24,267.11,271.59,266.9,271.59,266.9Z"></path><path d="M266.44,264s-.39.1-1.07.31-1.64.52-2.77.95a58.55,58.55,0,0,0-8.06,3.78,53.43,53.43,0,0,0-7.36,5,39.91,39.91,0,0,0-3,2.7l3.43-2.12c2-1.28,4.77-2.93,7.56-4.5s5.6-3.08,7.73-4.21l2.58-1.37C266.09,264.19,266.44,264,266.44,264Z"></path><path d="M260.83,261.58s-.36.09-1,.28-1.52.46-2.56.85a52.34,52.34,0,0,0-7.4,3.45,47.93,47.93,0,0,0-6.75,4.61,34.18,34.18,0,0,0-2.74,2.51l.87-.53,2.29-1.4c1.88-1.16,4.39-2.67,6.94-4.11s5.14-2.83,7.09-3.88l2.35-1.28C260.51,261.77,260.83,261.58,260.83,261.58Z"></path></g><path d="M213.14,266.61a2.22,2.22,0,0,0,.85,2.11l10.15,5.86h0a2.11,2.11,0,0,1-.87-2.11l2.2-49.58a7.58,7.58,0,0,1,3.41-5.61l23.91-13.8a2.55,2.55,0,0,1,2.52-.2h0l-10.08-5.81h0a2.55,2.55,0,0,0-2.58.16l-23.9,13.8a7.59,7.59,0,0,0-3.4,5.61Z" style="fill:#263238"></path><path d="M252.78,203.47l-23.9,13.8a7.61,7.61,0,0,0-3.41,5.6l-2.2,49.59c-.09,2.07,1.29,2.9,3.08,1.87l34-19.65a5.93,5.93,0,0,0,2.69-5.57l-6.5-43.81A2.36,2.36,0,0,0,252.78,203.47Z" style="fill:#37474f"></path><path d="M216.4,213.85l10.12,5.85a7.06,7.06,0,0,1,2.36-2.43l23.91-13.8a2.55,2.55,0,0,1,2.52-.2h0l-10.08-5.81h0a2.55,2.55,0,0,0-2.58.16l-23.9,13.8A7.21,7.21,0,0,0,216.4,213.85Z" style="fill:#455a64"></path><path d="M252.06,214a122.22,122.22,0,0,1,4.19,33.56,8.65,8.65,0,0,1-3.05,6,95.55,95.55,0,0,1-19,11,2.45,2.45,0,0,1-3.63-2.31,340.87,340.87,0,0,1-.11-36.39,9.17,9.17,0,0,1,3.26-6,75.25,75.25,0,0,1,13.9-8A3.24,3.24,0,0,1,252.06,214Z" style="fill:#BA68C8"></path><path d="M230.78,263.37a3.29,3.29,0,0,1-.26-1.14,340.87,340.87,0,0,1-.11-36.39,8.59,8.59,0,0,1,1-3.3c1.33-1.88,1.79,14,1.78,23.68,0,9.54-.13,19.24-1.71,18.13l-.18-.15A5.07,5.07,0,0,1,230.78,263.37Z" style="opacity:0.15"></path><g style="opacity:0.15"><path d="M254,246.72l-.77.49c-.47.33-1.18.76-2,1.3-1.65,1.08-3.86,2.47-6.12,3.76s-4.58,2.5-6.34,3.38c-.88.44-1.61.84-2.13,1.08s-.82.42-.82.42l.9-.19c.56-.15,1.38-.33,2.32-.64s2-.72,3.19-1.21c.57-.27,1.17-.51,1.74-.82s1.17-.62,1.76-.94c1.14-.68,2.27-1.39,3.28-2.13a31.76,31.76,0,0,0,2.65-2.14c.75-.66,1.32-1.27,1.73-1.68S254,246.72,254,246.72Z"></path><path d="M254,240.45l-.77.49c-.47.34-1.18.77-2,1.3-1.65,1.08-3.86,2.47-6.12,3.76s-4.58,2.5-6.34,3.39c-.88.43-1.61.83-2.13,1.07l-.82.42.9-.19c.56-.14,1.38-.33,2.32-.64a32.36,32.36,0,0,0,3.19-1.21c.57-.26,1.17-.51,1.74-.82s1.17-.62,1.76-.94c1.14-.67,2.27-1.39,3.28-2.13a29.85,29.85,0,0,0,2.65-2.14c.75-.66,1.32-1.27,1.73-1.68S254,240.45,254,240.45Z"></path><path d="M252.74,235.27s-.27.15-.72.44-1.09.7-1.85,1.19c-1.53,1-3.57,2.24-5.68,3.37s-4.27,2.18-5.91,3l-2,1-.75.39.83-.16c.52-.12,1.28-.28,2.16-.54a30.21,30.21,0,0,0,3-1c.53-.22,1.09-.43,1.63-.7s1.1-.54,1.65-.82,1.07-.61,1.58-.93,1-.67,1.48-1a28.26,28.26,0,0,0,2.45-2c.69-.62,1.21-1.19,1.58-1.57S252.74,235.27,252.74,235.27Z"></path><path d="M252.22,229.42l-.7.43c-.43.29-1.06.66-1.8,1.14-1.47.95-3.44,2.16-5.49,3.23s-4.15,2-5.74,2.8l-1.91.94-.73.38s.3,0,.81-.15,1.23-.25,2.08-.5a29,29,0,0,0,2.89-.94c.51-.21,1.06-.4,1.58-.66s1.07-.5,1.6-.77,1.05-.58,1.55-.89,1-.64,1.43-1a26.43,26.43,0,0,0,2.37-1.92c.66-.6,1.16-1.15,1.52-1.53S252.22,229.42,252.22,229.42Z"></path><path d="M251.32,223.85l-.66.39L249,225.31a56.88,56.88,0,0,1-5.18,3c-1.93,1-3.95,1.83-5.45,2.54s-2.49,1.25-2.49,1.25a27.28,27.28,0,0,0,2.73-.58,29.59,29.59,0,0,0,5.77-2.1q.75-.39,1.47-.81c.48-.28.92-.6,1.36-.9a21.49,21.49,0,0,0,2.22-1.81A18.72,18.72,0,0,0,251.32,223.85Z"></path><path d="M249.25,218.48s-.86.48-2.07,1.25-2.83,1.73-4.51,2.59-3.39,1.69-4.68,2.34-2.14,1.15-2.14,1.15a18.63,18.63,0,0,0,2.39-.48,24.62,24.62,0,0,0,5-1.9c.43-.24.86-.48,1.27-.73s.8-.53,1.18-.79a18.67,18.67,0,0,0,1.92-1.62A16.18,16.18,0,0,0,249.25,218.48Z"></path></g><path d="M219.34,205.41v-6.18c0-8.88,5.67-19.35,12.66-23.39,3.21-1.85,6.13-2,8.36-.8v0l7.72,4.49-3.43,6.55v4.73a7.15,7.15,0,0,1-3.24,5.61l-7.7,4.45-5.8,11.1-7.63-4.44h0A2.28,2.28,0,0,1,219.34,205.41Z" style="fill:#263238"></path><path d="M232,193.42l-9.92-5.73c2.32-5.06,5.9-9.53,9.92-11.85,3.21-1.85,6.13-2,8.36-.8v0l7.72,4.49-3.43,6.55v2.14Z" style="fill:#455a64"></path><path d="M226.94,209.83v-6.18c0-8.88,5.67-19.35,12.66-23.39s12.66-.11,12.66,8.77v6.18a7.15,7.15,0,0,1-3.24,5.61L230.18,211.7C228.39,212.73,226.94,211.9,226.94,209.83Z" style="fill:#37474f"></path><path d="M166.94,298.14l12-.24,18.31-10.49a13.7,13.7,0,0,1,11.09-.53l22.2,10,15.21-.3v8.88h0c0,1-.7,2-2.15,2.85l-39.84,23a9.77,9.77,0,0,1-10.24-.81l-24.75-20.09A4.42,4.42,0,0,1,167,307l0,0Z" style="fill:#37474f"></path><path d="M166.93,298.15V307l0,0a4.42,4.42,0,0,0,1.82,3.41l24.75,20.08a9.13,9.13,0,0,0,4.84,1.85v-8.88a9.12,9.12,0,0,1-4.84-1.84l-24.75-20.1A4.47,4.47,0,0,1,166.93,298.15Z" style="fill:#263238"></path><path d="M243.62,299.45l-39.84,23a9.74,9.74,0,0,1-10.24-.81l-24.75-20.09c-2.67-2.17-2.42-5.32.57-7l27.92-16a13.74,13.74,0,0,1,11.09-.54l35,15.78C246.48,295.18,246.6,297.73,243.62,299.45Z" style="fill:#455a64"></path><path d="M212.22,288c6.28,1.12,12.5,4.33,18.67,9a2.77,2.77,0,0,1,0,4.61,123.51,123.51,0,0,1-24,13.77,8.88,8.88,0,0,1-6.79-.18,59.35,59.35,0,0,1-14.34-10.24,3.18,3.18,0,0,1,.45-4.94,100.71,100.71,0,0,1,18.83-11A14.87,14.87,0,0,1,212.22,288Z" style="fill:#BA68C8"></path><g style="opacity:0.2"><path d="M227.53,299.25l-1.07.32c-.67.22-1.64.51-2.78.95a57.7,57.7,0,0,0-8.05,3.77,54.33,54.33,0,0,0-7.36,5c-1.88,1.55-3,2.71-3,2.71l3.42-2.13c2-1.27,4.78-2.93,7.56-4.49s5.61-3.09,7.74-4.21l2.57-1.38C227.18,299.46,227.53,299.25,227.53,299.25Z"></path><path d="M221.54,295.81s-.39.1-1.07.31-1.64.51-2.77.95a58.39,58.39,0,0,0-8.06,3.77,54.33,54.33,0,0,0-7.36,5c-1.88,1.55-3,2.71-3,2.71l3.42-2.12c2.05-1.28,4.78-2.93,7.57-4.5s5.6-3.09,7.73-4.21l2.57-1.38C221.19,296,221.54,295.81,221.54,295.81Z"></path><path d="M216.39,292.88l-1.07.32c-.66.21-1.64.51-2.77.94a59.66,59.66,0,0,0-8.06,3.78,54.68,54.68,0,0,0-7.36,5,38.5,38.5,0,0,0-3,2.71l3.43-2.13c2-1.27,4.78-2.93,7.56-4.5s5.6-3.08,7.73-4.21l2.58-1.37C216,293.09,216.39,292.88,216.39,292.88Z"></path><path d="M210.78,290.48l-1,.28c-.62.2-1.51.46-2.56.86a52.19,52.19,0,0,0-7.4,3.44,47.93,47.93,0,0,0-6.75,4.61,36.53,36.53,0,0,0-2.74,2.51s.32-.18.87-.53l2.29-1.4c1.88-1.16,4.39-2.67,6.94-4.1s5.14-2.84,7.09-3.89l2.35-1.27C210.46,290.68,210.78,290.48,210.78,290.48Z"></path></g><path d="M163.1,295.52a2.2,2.2,0,0,0,.84,2.1l10.15,5.86h0a2.12,2.12,0,0,1-.87-2.11l2.21-49.58a7.59,7.59,0,0,1,3.4-5.61l23.91-13.8a2.55,2.55,0,0,1,2.52-.2h0l-10.07-5.81h0a2.59,2.59,0,0,0-2.59.16l-23.89,13.8a7.59,7.59,0,0,0-3.41,5.61Z" style="fill:#263238"></path><path d="M202.74,232.37l-23.91,13.8a7.57,7.57,0,0,0-3.4,5.61l-2.21,49.59c-.09,2.06,1.29,2.9,3.08,1.86l34-19.65A5.92,5.92,0,0,0,213,278l-6.5-43.81A2.36,2.36,0,0,0,202.74,232.37Z" style="fill:#37474f"></path><path d="M166.35,242.76l10.12,5.84a7.24,7.24,0,0,1,2.36-2.43l23.91-13.8a2.55,2.55,0,0,1,2.52-.2h0l-10.07-5.81h0a2.59,2.59,0,0,0-2.59.16l-23.89,13.8A7.09,7.09,0,0,0,166.35,242.76Z" style="fill:#455a64"></path><path d="M202,242.87a122.29,122.29,0,0,1,4.19,33.57,8.65,8.65,0,0,1-3,6,95.91,95.91,0,0,1-19.06,11,2.45,2.45,0,0,1-3.63-2.3,343.72,343.72,0,0,1-.11-36.4,9.23,9.23,0,0,1,3.26-6,75.25,75.25,0,0,1,13.9-8A3.23,3.23,0,0,1,202,242.87Z" style="fill:#BA68C8"></path><path d="M180.73,292.27a3.24,3.24,0,0,1-.26-1.13,343.72,343.72,0,0,1-.11-36.4,8.5,8.5,0,0,1,1-3.3c1.32-1.88,1.79,14,1.78,23.68s-.13,19.25-1.72,18.13l-.18-.15A5.07,5.07,0,0,1,180.73,292.27Z" style="opacity:0.15"></path><g style="opacity:0.15"><path d="M204,275.62s-.29.17-.78.49-1.17.77-2,1.3c-1.65,1.08-3.86,2.47-6.12,3.76s-4.57,2.5-6.34,3.39c-.88.43-1.61.83-2.13,1.07l-.81.42.89-.19c.56-.14,1.38-.33,2.32-.64a31.44,31.44,0,0,0,3.19-1.21c.57-.26,1.17-.51,1.74-.82s1.17-.62,1.76-.94c1.15-.68,2.27-1.39,3.28-2.13a31.76,31.76,0,0,0,2.65-2.14c.75-.66,1.33-1.27,1.73-1.68S204,275.62,204,275.62Z"></path><path d="M204,269.35s-.29.17-.78.5-1.17.76-2,1.3c-1.65,1.07-3.86,2.46-6.12,3.76s-4.57,2.5-6.34,3.38c-.88.44-1.61.83-2.13,1.07l-.81.42.89-.19c.56-.14,1.38-.32,2.32-.64a29.22,29.22,0,0,0,3.19-1.21c.57-.26,1.17-.51,1.74-.82s1.17-.61,1.76-.93c1.15-.68,2.27-1.4,3.28-2.13a29.83,29.83,0,0,0,2.65-2.15c.75-.65,1.33-1.27,1.73-1.68S204,269.35,204,269.35Z"></path><path d="M202.69,264.17s-.27.15-.72.45-1.09.69-1.85,1.18c-1.53,1-3.57,2.25-5.68,3.38s-4.27,2.17-5.91,3l-2,1c-.48.24-.74.39-.74.39s.3,0,.82-.16,1.28-.27,2.16-.54,1.9-.59,3-1c.53-.23,1.09-.44,1.63-.71s1.1-.53,1.65-.82,1.07-.61,1.58-.93,1-.67,1.48-1a25.22,25.22,0,0,0,2.45-2c.69-.62,1.21-1.19,1.58-1.57S202.69,264.17,202.69,264.17Z"></path><path d="M202.17,258.32l-.7.43c-.42.3-1.06.67-1.79,1.14-1.48.95-3.45,2.16-5.5,3.23s-4.15,2-5.74,2.8l-1.91.95c-.47.23-.72.38-.72.38l.8-.15c.5-.12,1.23-.26,2.08-.51a29,29,0,0,0,2.89-.94c.51-.21,1.06-.4,1.58-.66s1.07-.5,1.61-.77,1-.58,1.54-.89,1-.64,1.43-.95a24.79,24.79,0,0,0,2.37-1.92c.66-.6,1.16-1.15,1.52-1.52S202.17,258.32,202.17,258.32Z"></path><path d="M201.27,252.75l-.66.39-1.69,1.07a55.55,55.55,0,0,1-5.18,3c-1.93,1-4,1.83-5.45,2.54s-2.48,1.25-2.48,1.25,1.11-.16,2.72-.57a29.36,29.36,0,0,0,5.77-2.1c.5-.27,1-.53,1.47-.82s.93-.6,1.36-.9a22.83,22.83,0,0,0,2.23-1.81A19.15,19.15,0,0,0,201.27,252.75Z"></path><path d="M199.2,247.38s-.86.49-2.07,1.25-2.83,1.73-4.51,2.6-3.39,1.68-4.68,2.33-2.13,1.15-2.13,1.15a18.7,18.7,0,0,0,2.38-.48,24,24,0,0,0,5-1.9c.43-.24.86-.48,1.27-.73s.8-.53,1.18-.79a17.65,17.65,0,0,0,1.92-1.62A15,15,0,0,0,199.2,247.38Z"></path></g><path d="M169.29,234.31v-6.18c0-8.88,5.67-19.35,12.67-23.39,3.2-1.85,6.12-2,8.36-.8h0l7.72,4.48L194.62,215v4.73a7.17,7.17,0,0,1-3.24,5.61l-7.71,4.45-5.8,11.1-7.63-4.44h0A2.26,2.26,0,0,1,169.29,234.31Z" style="fill:#263238"></path><path d="M182,222.32,172,216.59c2.32-5.06,5.9-9.52,9.93-11.85,3.2-1.85,6.12-2,8.36-.8h0l7.72,4.48L194.62,215v2.14Z" style="fill:#455a64"></path><path d="M176.89,238.73v-6.18c0-8.88,5.67-19.35,12.66-23.39s12.66-.11,12.66,8.77v6.18a7.15,7.15,0,0,1-3.24,5.61L180.13,240.6C178.34,241.63,176.89,240.8,176.89,238.73Z" style="fill:#37474f"></path><g id="freepik--arm-with-steering-wheel--inject-144"><path d="M254.8,258.89c-2.85-1.65-4.42-4.93-4.42-9.26,0-8.1,5.5-17.63,12.52-21.69h0c3.75-2.16,7.38-2.44,10.23-.8s4.41,4.93,4.41,9.26c0,8.1-5.5,17.63-12.52,21.68a12.45,12.45,0,0,1-6.18,1.86A8,8,0,0,1,254.8,258.89ZM265,231.61h0c-5.64,3.26-10.4,11.51-10.4,18,0,2.71.83,4.75,2.3,5.59s3.64.55,6-.8c5.64-3.26,10.41-11.51,10.41-18,0-2.71-.84-4.75-2.3-5.59a3.77,3.77,0,0,0-1.92-.48A8.35,8.35,0,0,0,265,231.61Z" style="fill:#263238"></path><path d="M264,238.39a8.85,8.85,0,0,0-4,6.94c0,2.55,1.79,3.59,4,2.31a8.84,8.84,0,0,0,4-6.94C268,238.15,266.18,237.11,264,238.39Z" style="fill:#263238"></path><polygon points="264.43 244.12 274.71 231.33 273.06 230 263.49 241.91 254.13 241.07 253.94 243.18 264.43 244.12" style="fill:#263238"></polygon><rect x="262.9" y="243.01" width="2.12" height="13.24" style="fill:#263238"></rect></g></g><polygon points="245.31 146.86 155.48 198.73 203.04 226.19 205.69 224.66 160.76 198.73 245.31 149.91 287.59 174.32 290.23 172.8 245.31 146.86" style="fill:#BA68C8"></polygon><polygon points="245.31 146.86 155.48 198.73 203.04 226.19 205.69 224.66 160.76 198.73 245.31 149.91 287.59 174.32 290.23 172.8 245.31 146.86" style="fill:#fff;opacity:0.8"></polygon><polygon points="203.04 226.19 155.48 198.73 158.12 203.31 203.05 229.24 203.04 226.19" style="fill:#BA68C8"></polygon><polygon points="203.04 226.19 155.48 198.73 158.12 203.31 203.05 229.24 203.04 226.19" style="fill:#fff;opacity:0.6000000000000001"></polygon><polygon points="245.31 149.91 245.31 152.96 282.3 174.32 284.96 172.81 245.31 149.91" style="fill:#BA68C8"></polygon><polygon points="245.31 149.91 245.31 152.96 282.3 174.32 284.96 172.81 245.31 149.91" style="fill:#fff;opacity:0.6000000000000001"></polygon><polygon points="245.31 149.91 160.76 198.73 163.41 200.25 245.31 152.96 245.31 149.91" style="fill:#BA68C8"></polygon><polygon points="245.31 149.91 160.76 198.73 163.41 200.25 245.31 152.96 245.31 149.91" style="fill:#fff;opacity:0.30000000000000004"></polygon><path d="M292.87,174.32,203,226.19l14.34,51.71,89.85-51.76Zm-85.26,53.74,82.84-47.83,12.22,44L219.8,272Z" style="fill:#37474f"></path><polygon points="302.67 224.26 219.8 272.01 207.61 228.06 290.45 180.23 302.67 224.26" style="fill:#BA68C8;opacity:0.30000000000000004"></polygon><polygon points="292.87 174.32 287.59 171.27 197.75 223.14 203.04 226.19 292.87 174.32" style="fill:#455a64"></polygon><polygon points="197.75 223.14 212.1 274.85 212.1 292.44 217.38 295.49 217.38 277.9 203.04 226.19 197.75 223.14" style="fill:#263238"></polygon><g id="freepik--percentage-box--inject-144"><path d="M196.91,281.08l7.84-4.55a1.8,1.8,0,0,1,1.83-.18c.46.27,1.38.84,1.85,1.1a1.8,1.8,0,0,1,.76,1.67v18.81a5.69,5.69,0,0,1-2.57,4.46l-7.84,4.55a1.81,1.81,0,0,1-1.82.18c-.47-.27-1.4-.84-1.86-1.1a1.81,1.81,0,0,1-.76-1.67V285.54A5.69,5.69,0,0,1,196.91,281.08Z" style="fill:#37474f"></path><path d="M194.34,285.54v18.81a1.81,1.81,0,0,0,.76,1.67c.45.25,1.15.69,1.8,1.07a1.87,1.87,0,0,1-.69-1.64V286.64a5.2,5.2,0,0,1,.75-2.53L195.09,283A5.31,5.31,0,0,0,194.34,285.54Z" style="fill:#263238"></path><path d="M206.62,302.39l-7.84,4.55c-1.42.82-2.58.16-2.58-1.49V286.64a5.69,5.69,0,0,1,2.58-4.45l7.84-4.56c1.42-.82,2.57-.15,2.57,1.49v18.81A5.69,5.69,0,0,1,206.62,302.39Z" style="fill:#455a64"></path></g><path d="M213.61,305.51a5.88,5.88,0,0,1,2.63,4.58c0,1.69-1.18,2.37-2.64,1.53A5.82,5.82,0,0,1,211,307C211,305.35,212.15,304.67,213.61,305.51Z" style="fill:#37474f"></path><path d="M204.34,314.37a2,2,0,0,1-2-2v-19.1a.65.65,0,1,1,1.3,0v19.1a.65.65,0,0,0,1,.57l8.62-5a.65.65,0,1,1,.65,1.13l-8.62,5A1.9,1.9,0,0,1,204.34,314.37Z" style="fill:#263238"></path><polygon points="208.32 212.76 208.32 217.04 210.29 218.18 214.23 215.9 214.23 211.63 212.26 210.49 208.32 212.76" style="fill:#263238"></polygon><polygon points="210.29 218.18 210.29 213.83 208.32 212.76 208.32 217.04 210.29 218.18"></polygon><g id="freepik--percentage-box--inject-144"><path d="M204.51,201.43l8.69-5a.73.73,0,0,1,.73-.07l2.92,1.69a.73.73,0,0,1,.31.68v10a2.28,2.28,0,0,1-1,1.8l-8.68,5a.72.72,0,0,1-.74.07l-2.92-1.69a.73.73,0,0,1-.31-.67v-10A2.31,2.31,0,0,1,204.51,201.43Z" style="fill:#37474f"></path><path d="M203.47,203.23v10a.73.73,0,0,0,.31.67l2.9,1.68a.76.76,0,0,1-.28-.66v-10a2.08,2.08,0,0,1,.31-1l-2.93-1.7A2.15,2.15,0,0,0,203.47,203.23Z" style="fill:#263238"></path><path d="M216.12,210.55l-8.68,5c-.57.33-1,.06-1-.6v-10a2.31,2.31,0,0,1,1-1.8l8.68-5c.58-.33,1-.07,1,.6v10A2.28,2.28,0,0,1,216.12,210.55Z" style="fill:#455a64"></path><path d="M207.24,204.92a1.49,1.49,0,0,1,.62-1.07l8.45-4.83v9.73a1.49,1.49,0,0,1-.62,1.07l-8.45,4.83Z" style="fill:#f0f0f0"></path></g><polygon points="224.19 203.6 224.19 207.88 226.16 209.01 230.1 206.74 230.1 202.46 228.13 201.33 224.19 203.6" style="fill:#263238"></polygon><polygon points="226.16 209.01 226.16 204.67 224.19 203.6 224.19 207.88 226.16 209.01"></polygon><g id="freepik--percentage-box--inject-144"><path d="M220.38,192.27l8.68-5a.75.75,0,0,1,.74-.07l2.92,1.69a.73.73,0,0,1,.31.68v10a2.33,2.33,0,0,1-1,1.81l-8.68,5a.75.75,0,0,1-.74.07l-2.92-1.69a.73.73,0,0,1-.31-.67v-10A2.3,2.3,0,0,1,220.38,192.27Z" style="fill:#37474f"></path><path d="M219.34,194.07v10a.73.73,0,0,0,.31.67l2.9,1.68a.75.75,0,0,1-.28-.66v-10a2.07,2.07,0,0,1,.3-1l-2.92-1.7A2.12,2.12,0,0,0,219.34,194.07Z" style="fill:#263238"></path><path d="M232,201.39l-8.68,5c-.58.33-1,.06-1-.6v-10a2.28,2.28,0,0,1,1-1.8l8.68-5c.57-.34,1-.07,1,.6v10A2.33,2.33,0,0,1,232,201.39Z" style="fill:#455a64"></path><path d="M223.11,195.76a1.49,1.49,0,0,1,.62-1.07l8.45-4.83v9.73a1.49,1.49,0,0,1-.62,1.07l-8.45,4.83Z" style="fill:#f0f0f0"></path></g><polygon points="240.06 194.44 240.06 198.71 242.03 199.85 245.97 197.57 245.97 193.3 244 192.16 240.06 194.44" style="fill:#263238"></polygon><polygon points="242.03 199.85 242.03 195.51 240.06 194.44 240.06 198.71 242.03 199.85"></polygon><g id="freepik--percentage-box--inject-144"><path d="M236.25,183.1l8.68-5a.72.72,0,0,1,.74-.07l2.92,1.69a.73.73,0,0,1,.31.67v10a2.3,2.3,0,0,1-1,1.8l-8.68,5a.75.75,0,0,1-.74.07l-2.92-1.69a.73.73,0,0,1-.31-.68v-10A2.33,2.33,0,0,1,236.25,183.1Z" style="fill:#37474f"></path><path d="M235.21,184.9v10a.73.73,0,0,0,.31.68l2.9,1.68a.75.75,0,0,1-.28-.66v-10a2.13,2.13,0,0,1,.3-1l-2.93-1.69A2.21,2.21,0,0,0,235.21,184.9Z" style="fill:#263238"></path><path d="M247.86,192.22l-8.68,5c-.58.33-1,.06-1-.6v-10a2.27,2.27,0,0,1,1-1.8l8.68-5c.57-.33,1-.06,1,.6v10A2.3,2.3,0,0,1,247.86,192.22Z" style="fill:#455a64"></path><path d="M239,186.6a1.46,1.46,0,0,1,.62-1.07l8.45-4.83v9.72a1.49,1.49,0,0,1-.62,1.07L239,196.33Z" style="fill:#f0f0f0"></path></g><polygon points="255.92 185.28 255.92 189.55 257.89 190.69 261.84 188.41 261.84 184.14 259.87 183 255.92 185.28" style="fill:#263238"></polygon><polygon points="257.89 190.69 257.89 186.35 255.92 185.28 255.92 189.55 257.89 190.69"></polygon><g id="freepik--percentage-box--inject-144"><path d="M252.12,173.94l8.68-5a.72.72,0,0,1,.74-.07l2.92,1.69a.73.73,0,0,1,.31.67v10a2.31,2.31,0,0,1-1,1.8L255,188a.73.73,0,0,1-.73.07l-2.92-1.69a.73.73,0,0,1-.31-.68v-10A2.28,2.28,0,0,1,252.12,173.94Z" style="fill:#37474f"></path><path d="M251.08,175.74v10a.73.73,0,0,0,.31.68l2.9,1.68a.76.76,0,0,1-.28-.67v-10a2.1,2.1,0,0,1,.3-1l-2.93-1.69A2.18,2.18,0,0,0,251.08,175.74Z" style="fill:#263238"></path><path d="M263.73,183.06,255,188c-.57.33-1,.06-1-.61v-10a2.3,2.3,0,0,1,1-1.8l8.69-5c.57-.33,1-.06,1,.6v10A2.31,2.31,0,0,1,263.73,183.06Z" style="fill:#455a64"></path><path d="M254.85,177.44a1.48,1.48,0,0,1,.62-1.08l8.45-4.83v9.73a1.48,1.48,0,0,1-.61,1.07l-8.46,4.83Z" style="fill:#f0f0f0"></path></g><polygon points="271.79 176.12 271.79 180.39 273.76 181.53 277.71 179.25 277.71 174.98 275.74 173.84 271.79 176.12" style="fill:#263238"></polygon><polygon points="273.76 181.53 273.76 177.19 271.79 176.12 271.79 180.39 273.76 181.53"></polygon><g id="freepik--percentage-box--inject-144"><path d="M268,164.78l8.68-5a.72.72,0,0,1,.74-.07l2.92,1.69a.71.71,0,0,1,.3.67v10a2.28,2.28,0,0,1-1,1.8l-8.68,5a.71.71,0,0,1-.73.08l-2.93-1.69a.74.74,0,0,1-.3-.68v-10A2.28,2.28,0,0,1,268,164.78Z" style="fill:#37474f"></path><path d="M267,166.58v10a.74.74,0,0,0,.3.68l2.9,1.67a.75.75,0,0,1-.28-.66v-10a2.11,2.11,0,0,1,.31-1l-2.93-1.69A2.07,2.07,0,0,0,267,166.58Z" style="fill:#263238"></path><path d="M279.59,173.9l-8.68,5c-.57.34-1,.07-1-.6v-10a2.33,2.33,0,0,1,1-1.8l8.68-5c.58-.33,1-.06,1,.6v10A2.28,2.28,0,0,1,279.59,173.9Z" style="fill:#455a64"></path><path d="M270.72,168.28a1.48,1.48,0,0,1,.61-1.08l8.46-4.83v9.73a1.46,1.46,0,0,1-.62,1.07L270.72,178Z" style="fill:#f0f0f0"></path></g></g></g></svg>