<svg xmlns="http://www.w3.org/2000/svg" viewBox="0 0 750 500"><g id="freepik--Car--inject-72"><rect x="91.32" y="294.04" width="566.95" height="76.64" style="fill:#200440"></rect><g style="opacity:0.4"><rect x="91.32" y="294.04" width="566.95" height="76.64"></rect></g><path d="M682.14,287.58a47,47,0,0,0-38.64-30.51l-127.28-15-46.46-33.16A190.52,190.52,0,0,0,359.09,173.5H57a5.22,5.22,0,0,0-2,10l21.78,9.31a40.05,40.05,0,0,0-2.19,4.28l-12.3,28.5a55.52,55.52,0,0,0-4.54,22,12.46,12.46,0,0,0-12.46,12.45v49.65l-12.9,5.76a17.25,17.25,0,0,0-10.2,15.73v12.88A21,21,0,0,0,39.09,364.7l68.29,13.66v-6.17a65.92,65.92,0,0,1,65.92-65.92h0a65.92,65.92,0,0,1,65.92,65.92v6.17H513.58v-6.17a65.92,65.92,0,0,1,65.92-65.92h0a65.92,65.92,0,0,1,65.92,65.92v6.17h33.69a16.46,16.46,0,0,0,16.46-16.47V324.24Z" style="fill:#200440"></path><path d="M74.58,197.11l-12.3,28.5a55.52,55.52,0,0,0-4.54,22h17l16.6-48.55-14.55-6.23A40.05,40.05,0,0,0,74.58,197.11Z" style="fill:#455a64"></path><path d="M682.14,287.58a46.68,46.68,0,0,0-3.86-8h-18l16.33,37.9,19,11v-4.2Z" style="fill:#200440"></path><g style="opacity:0.2"><path d="M682.14,287.58a46.68,46.68,0,0,0-3.86-8h-18l16.33,37.9,19,11v-4.2Z"></path></g><path d="M46.59,292.94h9.35a26.24,26.24,0,0,0,15-4.68l15.56-10.8a10.15,10.15,0,0,0,4.38-8.36h0a10.18,10.18,0,0,0-10.18-10.18h-34a1.49,1.49,0,0,0-1.49,1.49l0,31A1.49,1.49,0,0,0,46.59,292.94Z" style="fill:#ebebeb"></path><path d="M696.55,326.73l-5.42-3.13h3.31a2,2,0,0,0,0-3.93H684.31l-3.41-2h11.56a2,2,0,0,0,0-3.94H677.11l-.85-2h13.9a2,2,0,1,0,0-3.93H674.57l-.85-2h14.51a2,2,0,1,0,0-3.93H672l-.85-2H686a2,2,0,0,0,0-3.93H669.48l-.84-2h15.07a2,2,0,1,0,0-3.93H666.94l-.85-2h15.53a2,2,0,0,0,0-3.94H664.4l-1.18-2.72h15.06a2,2,0,1,0,0-3.93h-18a2,2,0,0,0-1.81,2.74l5.41,12.55h0l2.54,5.9h0l2.54,5.9h0l2.54,5.9h0l2.54,5.89h0l.75,1.74a2.06,2.06,0,0,0,.82.93l19,11a2,2,0,0,0,2-3.41Z" style="fill:#200440"></path><g style="opacity:0.2"><path d="M696.55,326.73l-5.42-3.13h3.31a2,2,0,0,0,0-3.93H684.31l-3.41-2h11.56a2,2,0,0,0,0-3.94H677.11l-.85-2h13.9a2,2,0,1,0,0-3.93H674.57l-.85-2h14.51a2,2,0,1,0,0-3.93H672l-.85-2H686a2,2,0,0,0,0-3.93H669.48l-.84-2h15.07a2,2,0,1,0,0-3.93H666.94l-.85-2h15.53a2,2,0,0,0,0-3.94H664.4l-1.18-2.72h15.06a2,2,0,1,0,0-3.93h-18a2,2,0,0,0-1.81,2.74l5.41,12.55h0l2.54,5.9h0l2.54,5.9h0l2.54,5.9h0l2.54,5.89h0l.75,1.74a2.06,2.06,0,0,0,.82.93l19,11a2,2,0,0,0,2-3.41Z" style="fill:#fff"></path></g><circle cx="174.78" cy="374.92" r="57.45" transform="translate(-5.58 2.65) rotate(-0.86)" style="fill:#263238"></circle><path d="M117.35,373.94a.76.76,0,0,0,0,.15,57.45,57.45,0,1,0,114.88,1.66.75.75,0,0,0,0-.15Z" style="fill:#263238"></path><path d="M134.45,374.34a40.33,40.33,0,1,0,40.91-39.75A40.33,40.33,0,0,0,134.45,374.34Z" style="fill:#fafafa"></path><path d="M175.36,334.59a40.33,40.33,0,0,0-40.91,39.75l80.66,1.16A40.33,40.33,0,0,0,175.36,334.59Z" style="fill:#e0e0e0"></path><path d="M150.21,374.56a24.57,24.57,0,1,0,24.92-24.21A24.57,24.57,0,0,0,150.21,374.56Z" style="fill:#263238"></path><circle cx="579.77" cy="374.92" r="57.45" transform="translate(-30.65 52.29) rotate(-5.03)" style="fill:#263238"></circle><path d="M522.34,373.94c0,.05,0,.1,0,.15a57.45,57.45,0,0,0,114.89,1.66c0-.05,0-.1,0-.15Z" style="fill:#263238"></path><path d="M539.44,374.34a40.33,40.33,0,1,0,40.91-39.75A40.34,40.34,0,0,0,539.44,374.34Z" style="fill:#fafafa"></path><path d="M580.35,334.59a40.33,40.33,0,0,0-40.91,39.75l80.66,1.16A40.33,40.33,0,0,0,580.35,334.59Z" style="fill:#e0e0e0"></path><path d="M555.21,374.56a24.57,24.57,0,1,0,24.92-24.21A24.56,24.56,0,0,0,555.21,374.56Z" style="fill:#263238"></path><path d="M516.22,242.1l-46.46-33.16a190.51,190.51,0,0,0-43.3-23.1H411.14l92.94,61.77Z" style="fill:#455a64"></path><path d="M653.31,275.93h22.58a55,55,0,0,0-11.62-11.4C659.11,262.87,652.81,269.34,653.31,275.93Z" style="fill:#fafafa"></path><path d="M193.1,249.38H492L406.64,190.5a36.46,36.46,0,0,0-21.57-7.06H199.8s-66.56-1.63-81.17,18.45Z" style="fill:#263238"></path><path d="M171.52,249.52c-1.1,0-2.18,0-3.26-.1a52.32,52.32,0,0,1-37.7-19.5l-12.22-15.16a10,10,0,0,1,4.1-15.53l10.5-4.63A112.32,112.32,0,0,1,172,187.15h34.77l-11.14,62.37Zm48.45,0,11.11-62.37h102.4v62.37Zm144.64,0-12-62.37H388a25.19,25.19,0,0,1,15.07,5l76.76,57.36Z" style="fill:#455a64"></path><path d="M352.37,363a.94.94,0,0,1,0-.29c0-.23,0-.51,0-.87v-3.33c0-2.93.05-7.11.09-12.25.12-10.38.29-24.65.47-40.42.12-7.89.23-15.41.33-22.25,0-3.42.11-6.67.16-9.71a54.17,54.17,0,0,0-.29-8.42,59,59,0,0,0-2.78-11.88c-.47-1.36-.87-2.41-1.15-3.12l-.33-.8a1.27,1.27,0,0,1-.1-.28,1.5,1.5,0,0,1,.15.26c.09.17.21.44.37.78.32.7.75,1.74,1.26,3.09a57,57,0,0,1,2.94,11.9,53.34,53.34,0,0,1,.36,8.47c0,3.05-.07,6.3-.11,9.71-.09,6.85-.19,14.36-.29,22.26-.24,15.76-.46,30-.63,40.41-.1,5.14-.19,9.32-.25,12.25q-.06,2.13-.09,3.33c0,.36,0,.64,0,.87A1.11,1.11,0,0,1,352.37,363Z" style="fill:#263238"></path><path d="M482.08,253.87a.9.9,0,0,1,.23.16c.18.13.4.3.67.52l.49.39.51.55a11.68,11.68,0,0,1,1.21,1.43,38.28,38.28,0,0,1,5.18,10.72c.81,2.38,1.56,5,2.23,7.93.34,1.44.64,2.94.92,4.5a22.27,22.27,0,0,1,.37,4.87c0,6.65-.21,14-.4,21.63-.4,15.34-.86,29.22-1.23,39.27-.19,5-.35,9.05-.46,11.9-.07,1.37-.12,2.46-.16,3.23l-.05.84a1.36,1.36,0,0,1,0,.29,1.64,1.64,0,0,1,0-.29c0-.22,0-.49,0-.84,0-.78,0-1.86,0-3.24.08-2.85.18-6.9.3-11.9.28-10.08.66-23.95,1.08-39.28.19-7.66.4-15,.44-21.61a22.31,22.31,0,0,0-.34-4.8c-.27-1.54-.56-3-.89-4.48-.65-2.87-1.38-5.52-2.15-7.91A39.64,39.64,0,0,0,485,257,18.74,18.74,0,0,0,482.08,253.87Z" style="fill:#263238"></path><path d="M491.94,251.84h0a10.26,10.26,0,0,0-5.24-9l-13.45-7.56a25.74,25.74,0,0,0-12.57-3.28h0a25.64,25.64,0,0,0-8,1.27,14.6,14.6,0,0,0-9.81,13.4h0a14.83,14.83,0,0,0,14.82,15.39h24A10.27,10.27,0,0,0,491.94,251.84Z" style="fill:#200440"></path><path d="M491.94,251.84s0,.46-.16,1.3a10.25,10.25,0,0,1-1.18,3.52,10.48,10.48,0,0,1-4.12,4.06,10.18,10.18,0,0,1-3.46,1.09c-1.27.15-2.68.06-4.14.08l-20.53-.07a15.67,15.67,0,0,1-5.71-.94,14.48,14.48,0,0,1-9.4-14.77,14.54,14.54,0,0,1,6.06-10.74,15.41,15.41,0,0,1,5.56-2.35,25.89,25.89,0,0,1,5.81-.69,25.47,25.47,0,0,1,10.53,2.26c1.55.69,3,1.57,4.37,2.33l4,2.22,6.9,3.83A10.35,10.35,0,0,1,490.6,247a10.5,10.5,0,0,1,1.19,3.51c.13.85.11,1.3.15,1.3a6.5,6.5,0,0,0,0-1.31,10,10,0,0,0-1.11-3.61,10.38,10.38,0,0,0-4.16-4.26l-6.85-3.9-4-2.26c-1.4-.77-2.8-1.66-4.39-2.38a25.91,25.91,0,0,0-16.7-1.68,16.11,16.11,0,0,0-5.77,2.42,15.11,15.11,0,0,0-6.33,11.2,15.43,15.43,0,0,0,.94,6.62,15.23,15.23,0,0,0,8.87,8.76,15.87,15.87,0,0,0,5.92.95l20.53-.06a40.79,40.79,0,0,0,4.19-.13,10.22,10.22,0,0,0,3.57-1.18,10.68,10.68,0,0,0,4.18-4.25,9.89,9.89,0,0,0,1.09-3.61A7.33,7.33,0,0,0,491.94,251.84Z" style="fill:#263238"></path><path d="M454.78,237.71c.05,0,.36-.47,1.16-1.12a7.93,7.93,0,0,1,4-1.6,17.4,17.4,0,0,1,6.4.69,50.33,50.33,0,0,1,7.55,2.57,49.51,49.51,0,0,1,12.29,7.65c2.86,2.39,4.36,4.16,4.45,4.08a7.25,7.25,0,0,0-1-1.28,38.42,38.42,0,0,0-3.15-3.14,45.59,45.59,0,0,0-12.33-7.88,46.83,46.83,0,0,0-7.66-2.56,17.24,17.24,0,0,0-6.6-.57,7.8,7.8,0,0,0-4.06,1.86,5.06,5.06,0,0,0-.8.92A1.37,1.37,0,0,0,454.78,237.71Z" style="fill:#fff"></path><path d="M258.46,376.68s0-.24,0-.71.06-1.18.11-2.08.15-2,.16-3.37-.05-2.88-.08-4.61-.32-3.65-.49-5.75c-.1-1.05-.34-2.13-.51-3.26s-.34-2.31-.63-3.51a88.33,88.33,0,0,0-5.15-15.88,85.18,85.18,0,0,0-10.34-17.37A81.71,81.71,0,0,0,225,303.93a77.89,77.89,0,0,0-22.83-11.51A90.84,90.84,0,0,0,175,288.31a93.82,93.82,0,0,0-27.15,4.29,85.1,85.1,0,0,0-23,11.27,93,93,0,0,0-17.27,15.48,100.89,100.89,0,0,0-11.69,16.52A111,111,0,0,0,89,351.07c-.44,1.15-.76,2.3-1.13,3.38s-.72,2.13-1,3.15c-.51,2-1,3.9-1.42,5.6l-.9,4.52c-.24,1.31-.36,2.44-.5,3.34l-.3,2.06c-.07.46-.12.7-.12.7s0-.24.07-.71l.25-2.06c.12-.91.23-2,.45-3.36s.53-2.83.86-4.54.87-3.56,1.37-5.61c.25-1,.63-2.07,1-3.17s.68-2.24,1.11-3.4a108.69,108.69,0,0,1,6.9-15.28,101.26,101.26,0,0,1,11.68-16.63,93.59,93.59,0,0,1,17.33-15.59,85.41,85.41,0,0,1,23.09-11.36,94.57,94.57,0,0,1,27.3-4.32,91.29,91.29,0,0,1,27.32,4.14,78.42,78.42,0,0,1,22.95,11.61,82.08,82.08,0,0,1,16.61,16.33,85.62,85.62,0,0,1,10.33,17.49,88.21,88.21,0,0,1,5.09,16c.29,1.2.41,2.4.62,3.52s.4,2.22.49,3.28c.15,2.11.39,4,.44,5.77s0,3.28,0,4.62-.16,2.46-.21,3.38-.12,1.59-.16,2.07S258.46,376.68,258.46,376.68Z" style="fill:#263238"></path><path d="M199.68,291.37s-.12-.13-.3-.39-.44-.72-.74-1.19c-.63-1-1.53-2.54-2.59-4.44a73.94,73.94,0,0,1-3.44-6.82,11.93,11.93,0,0,1-.7-2.14,2.8,2.8,0,0,1,.07-1.22c.09-.38.21-.75.32-1.13.5-1.49,1.07-3,1.69-4.54,2.47-6.15,4.94-11.61,6.73-15.56.91-2,1.65-3.56,2.18-4.65.24-.5.45-.92.62-1.26a1.57,1.57,0,0,1,.25-.42,2.15,2.15,0,0,1-.16.47l-.53,1.29-2,4.72c-1.71,4-4.12,9.47-6.59,15.6-.61,1.53-1.19,3-1.68,4.51a4.71,4.71,0,0,0-.38,2.12,10.43,10.43,0,0,0,.65,2c1.1,2.63,2.31,4.91,3.32,6.83l2.44,4.51.66,1.23A2.66,2.66,0,0,1,199.68,291.37Z" style="fill:#263238"></path><path d="M116.55,310.61c0,.15-16.08.19-35.91.1s-35.92-.28-35.92-.42,16.08-.19,35.92-.1S116.55,310.47,116.55,310.61Z" style="fill:#263238"></path><path d="M491.55,362.1c0,.14-52.17.26-116.51.26s-116.51-.13-116.51-.27,52.15-.26,116.51-.26S491.55,362,491.55,362.1Z" style="fill:#263238"></path><path d="M695.55,362.72c0,.15-8,.26-17.84.26s-17.85-.11-17.85-.26,8-.26,17.85-.26S695.55,362.58,695.55,362.72Z" style="fill:#263238"></path><path d="M651.43,268.55H651l-1.11-.08-4.3-.35c-3.74-.3-9.13-.8-15.8-1.46-13.33-1.33-31.72-3.41-52-6.24s-38.5-5.87-51.68-8.26c-6.59-1.19-11.92-2.19-15.59-2.92l-4.23-.85-1.1-.23-.37-.1a2.18,2.18,0,0,1,.38,0l1.11.18,4.25.75,15.61,2.76c13.19,2.29,31.46,5.27,51.7,8.1s38.6,5,51.92,6.39l15.77,1.63,4.29.45,1.12.12Z" style="fill:#263238"></path><path d="M391.75,274.83s.29,0,.81-.12a5.61,5.61,0,0,0,2.13-.85,5.42,5.42,0,0,0,2.17-2.82,6,6,0,0,0,.28-2.23,5.52,5.52,0,0,0-.63-2.42,5.35,5.35,0,0,0-4.67-2.84l-6.84,0-15.68,0a5.32,5.32,0,0,0-5.27,4.71,6,6,0,0,0,.65,3.58,5.39,5.39,0,0,0,2.6,2.31,8.33,8.33,0,0,0,3.37.41H374l6,0,8.64.09,2.34,0a5.2,5.2,0,0,1,.82.05,4,4,0,0,1-.82.05l-2.34.05L380,275l-6,0h-3.32c-.58,0-1.13,0-1.75,0a6,6,0,0,1-1.81-.41,5.88,5.88,0,0,1-2.85-2.51,6.43,6.43,0,0,1-.72-3.89,5.82,5.82,0,0,1,5.78-5.18l15.68,0,6.84,0a5.76,5.76,0,0,1,5,3.11,5.85,5.85,0,0,1,.64,2.58,6.38,6.38,0,0,1-.34,2.34,5.61,5.61,0,0,1-2.34,2.9,5.45,5.45,0,0,1-2.23.78A3.22,3.22,0,0,1,391.75,274.83Z" style="fill:#263238"></path><path d="M389.83,261.81a73.2,73.2,0,0,1-8.89.27,73.2,73.2,0,0,1-8.89-.27,77.18,77.18,0,0,1,8.89-.26A77.18,77.18,0,0,1,389.83,261.81Z" style="fill:#fff"></path><path d="M244,275.74s.29,0,.81-.12a5.45,5.45,0,0,0,2.13-.85,5.37,5.37,0,0,0,2.17-2.82,5.92,5.92,0,0,0,.28-2.23,5.52,5.52,0,0,0-.63-2.42,5.39,5.39,0,0,0-4.67-2.84l-6.84,0-15.68,0a5.32,5.32,0,0,0-5.27,4.71,6,6,0,0,0,.65,3.58,5.39,5.39,0,0,0,2.6,2.31,8.16,8.16,0,0,0,3.37.41h3.32l6,0,8.64.08,2.34.05a5.2,5.2,0,0,1,.82.05,4.35,4.35,0,0,1-.82.06l-2.34.05-8.64.08-6,0-3.32,0c-.58,0-1.13,0-1.75,0a5.73,5.73,0,0,1-1.81-.41,5.83,5.83,0,0,1-2.85-2.51,6.42,6.42,0,0,1-.72-3.88,5.81,5.81,0,0,1,5.78-5.19l15.68,0,6.85,0a5.75,5.75,0,0,1,5,3.11,5.85,5.85,0,0,1,.64,2.58,6.38,6.38,0,0,1-.34,2.34,5.61,5.61,0,0,1-2.34,2.9,5.41,5.41,0,0,1-2.22.78A3.29,3.29,0,0,1,244,275.74Z" style="fill:#263238"></path><path d="M242.1,262.72a73.2,73.2,0,0,1-8.89.27,73.2,73.2,0,0,1-8.89-.27,77.18,77.18,0,0,1,8.89-.26A77.18,77.18,0,0,1,242.1,262.72Z" style="fill:#fff"></path><path d="M660.75,378.54s0-.24,0-.71,0-1.18,0-2.08,0-2,0-3.37-.2-2.87-.32-4.59-.48-3.63-.75-5.72c-.14-1-.42-2.11-.63-3.23s-.44-2.29-.76-3.47a95.19,95.19,0,0,0-5.56-15.73,90.21,90.21,0,0,0-10.56-17.21,84.56,84.56,0,0,0-16.56-16.15,78.9,78.9,0,0,0-22.72-11.65,87.68,87.68,0,0,0-54.18,0,79.19,79.19,0,0,0-22.73,11.64,84.84,84.84,0,0,0-16.56,16.15,90.27,90.27,0,0,0-10.56,17.22,95.1,95.1,0,0,0-5.56,15.72c-.32,1.19-.51,2.36-.76,3.48s-.49,2.19-.63,3.23c-.27,2.09-.6,4-.75,5.71s-.22,3.26-.32,4.59,0,2.47,0,3.38v2.07c0,.47,0,.71,0,.71s0-.24,0-.7,0-1.18,0-2.08-.06-2.05,0-3.38.17-2.88.27-4.61.45-3.63.7-5.73c.13-1,.41-2.12.62-3.25s.42-2.3.74-3.49a95.84,95.84,0,0,1,5.5-15.81A90.66,90.66,0,0,1,509,322.16a84.91,84.91,0,0,1,16.62-16.28,79.59,79.59,0,0,1,22.85-11.74,88,88,0,0,1,54.5,0,79,79,0,0,1,22.84,11.74,84.59,84.59,0,0,1,16.62,16.27A90.39,90.39,0,0,1,653,339.48a95.11,95.11,0,0,1,5.51,15.82c.32,1.19.5,2.37.74,3.49s.48,2.2.61,3.24c.26,2.1.57,4,.71,5.74s.19,3.27.27,4.61,0,2.46,0,3.37,0,1.6,0,2.08S660.75,378.54,660.75,378.54Z" style="fill:#263238"></path><path d="M224.62,183.44a2.19,2.19,0,0,1-.45,0l-1.31,0-5.06,0H199.18l-61.43-.2-33.83-.17c-10.39-.08-19.76,0-27.62-.46a136.38,136.38,0,0,1-18.5-2.13c-2.16-.41-3.83-.79-4.95-1.08l-1.27-.33a3,3,0,0,1-.43-.13l.44.08,1.29.28c1.12.26,2.8.6,5,1a145.17,145.17,0,0,0,18.48,1.95c7.85.41,17.21.3,27.6.35l33.83.13,61.43.35,18.62.17,5.06.07,1.31,0C224.47,183.42,224.62,183.44,224.62,183.44Z" style="fill:#263238"></path><path d="M295.51,209.92c.07.12-10.82,6-24.31,13s-24.49,12.69-24.55,12.56,10.81-6,24.31-13S295.45,209.79,295.51,209.92Z" style="fill:#fafafa"></path><path d="M318.3,205.35a2.83,2.83,0,0,1-.53.32l-1.55.84-5.73,3c-4.84,2.54-11.51,6.06-18.83,10s-13.9,7.68-18.65,10.37l-5.63,3.18-1.54.85a2.25,2.25,0,0,1-.56.26,3.26,3.26,0,0,1,.5-.35l1.49-.93c1.31-.81,3.2-1.94,5.56-3.33,4.7-2.77,11.26-6.52,18.59-10.51s14-7.46,18.91-9.91c2.44-1.22,4.42-2.2,5.8-2.85l1.6-.75A2.15,2.15,0,0,1,318.3,205.35Z" style="fill:#fafafa"></path><path d="M417.15,213.64a1.72,1.72,0,0,1-.43.24l-1.25.58-4.64,2.07c-3.92,1.75-9.31,4.21-15.21,7.06s-11.17,5.54-15,7.52l-4.51,2.35-1.24.62a1.93,1.93,0,0,1-.44.19s.12-.11.39-.28l1.19-.71c1-.61,2.55-1.46,4.43-2.49,3.77-2.06,9-4.82,14.93-7.67s11.33-5.26,15.29-6.93c2-.83,3.59-1.49,4.71-1.92l1.29-.49A1.93,1.93,0,0,1,417.15,213.64Z" style="fill:#fafafa"></path><path d="M402.92,212.25a23.75,23.75,0,0,1-2.85,1.46c-1.77.87-4.21,2.1-6.84,3.57s-5,2.9-6.63,3.95a24.3,24.3,0,0,1-2.75,1.66,16.36,16.36,0,0,1,2.54-2c1.63-1.14,3.94-2.63,6.58-4.1a77,77,0,0,1,6.95-3.45A15.81,15.81,0,0,1,402.92,212.25Z" style="fill:#fafafa"></path><path d="M179.74,211.68c.06.14-7.15,3-16.09,6.47s-16.23,6.11-16.28,6,7.15-3,16.09-6.46S179.69,211.55,179.74,211.68Z" style="fill:#fafafa"></path><path d="M170.47,208.69c.05.13-6.17,2.53-13.88,5.34s-14,5-14.07,4.86,6.17-2.53,13.89-5.35S170.42,208.55,170.47,208.69Z" style="fill:#fafafa"></path><path d="M592,287.33a4.6,4.6,0,0,1-.82-.05l-2.33-.23-1.68-.18c-.62-.05-1.29-.08-2-.12-1.45-.07-3.09-.23-4.9-.2l-2.86,0c-1,0-2,.07-3.09.11-2.13,0-4.4.3-6.8.52a99.52,99.52,0,0,0-30,8.24c-2.17,1-4.25,2-6.11,3-.94.52-1.86,1-2.72,1.49l-2.44,1.47c-1.57.91-2.9,1.88-4.11,2.67-.6.41-1.16.78-1.66,1.14s-.95.7-1.36,1l-1.88,1.39a4.16,4.16,0,0,1-.68.46,4.4,4.4,0,0,1,.61-.54l1.83-1.47,1.33-1.05c.5-.38,1-.75,1.64-1.17,1.2-.83,2.52-1.82,4.09-2.75l2.43-1.51c.85-.52,1.78-1,2.71-1.52,1.86-1.07,4-2,6.12-3.08a97,97,0,0,1,30.16-8.29c2.41-.21,4.69-.45,6.84-.47,1.07,0,2.1-.1,3.1-.08l2.86.05c1.83,0,3.47.18,4.92.28.72.06,1.39.09,2,.16l1.68.23,2.33.33A4.35,4.35,0,0,1,592,287.33Z" style="fill:#fafafa"></path><path d="M177.57,284.65a3.26,3.26,0,0,1-.65.05l-1.85,0c-.8,0-1.78,0-2.92.08s-2.44.09-3.86.25l-2.25.2c-.77.08-1.58.21-2.42.31-1.67.2-3.44.55-5.31.87a111.32,111.32,0,0,0-11.93,3.11,121.45,121.45,0,0,0-11.5,4.46c-3.45,1.57-6.5,3.11-9,4.52-1.27.67-2.37,1.35-3.36,1.92s-1.83,1.07-2.51,1.5l-1.58,1a3.55,3.55,0,0,1-.57.31,2.59,2.59,0,0,1,.51-.4c.4-.26.9-.61,1.53-1s1.49-1,2.47-1.58,2.07-1.3,3.33-2c2.49-1.45,5.54-3,9-4.64A115,115,0,0,1,146.22,289a104.66,104.66,0,0,1,12-3.08c1.88-.31,3.66-.65,5.35-.82.84-.1,1.65-.22,2.43-.29l2.26-.17c1.43-.14,2.74-.14,3.88-.17s2.13,0,2.93,0l1.86.07A2.69,2.69,0,0,1,177.57,284.65Z" style="fill:#fafafa"></path><rect x="234.5" y="190.59" width="89.64" height="55.49" transform="translate(-8.77 11.72) rotate(-2.37)" style="fill:#e0e0e0"></rect><path d="M235.2,248.43,232.87,192l90.56-3.74,2.33,56.44ZM233.91,193l2.25,54.44,88.56-3.66-2.25-54.44Z" style="fill:#263238"></path><path d="M244,209.15,248,209l.13,2.93-4.06.17.35,8.46-3.14.13-.85-20.49,8.31-.35.12,2.93-5.17.21Z" style="fill:#200440"></path><path d="M250.23,204.7c-.13-3.28,1.48-5.22,4.56-5.35s4.85,1.67,5,5l.44,10.66c.13,3.28-1.48,5.22-4.56,5.35s-4.85-1.68-5-5Zm3.59,10.73c.07,1.46.72,2,1.72,1.95s1.6-.62,1.54-2.09l-.46-11.06c-.06-1.47-.71-2-1.71-1.95s-1.6.62-1.54,2.08Z" style="fill:#200440"></path><path d="M269,219.52a6.56,6.56,0,0,1-.39-2.51l-.13-3.22c-.08-1.9-.74-2.57-2.17-2.52l-1.08,0,.34,8.34-3.14.13-.85-20.49,4.75-.19c3.25-.14,4.72,1.35,4.85,4.52l.06,1.61c.09,2.1-.51,3.51-1.88,4.24,1.6.61,2.18,2.14,2.26,4.27l.13,3.16a6.28,6.28,0,0,0,.45,2.48Zm-4.15-17.42.26,6.29,1.23,0c1.17-.05,1.86-.6,1.79-2.24l-.08-2c-.06-1.47-.58-2.09-1.69-2Z" style="fill:#200440"></path><path d="M281.74,198.24c3.05-.13,4.7,1.68,4.84,5l0,.64-3,.12,0-.85c-.06-1.46-.66-2-1.66-2s-1.55.62-1.49,2.08c.18,4.22,6.35,4.75,6.6,10.61.13,3.28-1.39,5.22-4.48,5.34s-4.76-1.67-4.9-4.95l-.05-1.26,3-.13.06,1.47c.06,1.46.72,2,1.72,1.92s1.6-.59,1.54-2.06c-.17-4.21-6.35-4.75-6.59-10.6C277.19,200.3,278.68,198.36,281.74,198.24Z" style="fill:#200440"></path><path d="M299.22,218.27l-3.17.13-.7-3.69-3.85.16-.39,3.74-2.89.12,2.35-20.63,4.6-.19Zm-7.44-6.2,3-.13-1.94-10.29Z" style="fill:#200440"></path><path d="M299.83,197.72l3.14-.13.73,17.57,5.17-.22.12,2.93-8.31.34Z" style="fill:#200440"></path><path d="M313,205.83l4.31-.18.12,2.93-4.31.17.25,6,5.42-.22.13,2.93-8.58.35-.84-20.49,8.57-.35.12,2.92-5.43.23Z" style="fill:#200440"></path><rect x="240.64" y="225.16" width="78.55" height="12.83" rx="5.6" transform="translate(-9.32 11.75) rotate(-2.37)" style="fill:#fafafa"></rect><path d="M255.92,236.5a1,1,0,0,1,.16-.3,4.21,4.21,0,0,1,.63-.73,5.73,5.73,0,0,1,3.2-1.49,5.15,5.15,0,0,1,2.47.28,2.93,2.93,0,0,1,1.91,2.15,3.3,3.3,0,0,1-1.05,3,3.91,3.91,0,0,1-3.31.78,5,5,0,0,1-2.87-1.82,6.93,6.93,0,0,1-1.33-2.85,7.6,7.6,0,0,1,.65-5.19,7.52,7.52,0,0,1,2.33-2.66,6.14,6.14,0,0,1,.83-.49,1.29,1.29,0,0,1,.32-.11s-.39.25-1,.76a7.78,7.78,0,0,0-2.12,2.66,7.45,7.45,0,0,0-.52,4.92,6.79,6.79,0,0,0,1.27,2.64,4.48,4.48,0,0,0,2.57,1.63,3.39,3.39,0,0,0,2.87-.66,2.79,2.79,0,0,0,.91-2.53,2.49,2.49,0,0,0-1.59-1.83,4.83,4.83,0,0,0-2.27-.31,5.78,5.78,0,0,0-3.11,1.27C256.21,236.14,256,236.53,255.92,236.5Z" style="fill:#263238"></path><path d="M267.28,238.4s.38.14,1.07.22a4.27,4.27,0,0,0,2.78-.71,3.72,3.72,0,0,0,1.25-1.5,3.33,3.33,0,0,0,.16-2.19,2.56,2.56,0,0,0-1.62-1.68,4.21,4.21,0,0,0-2.63,0,12.39,12.39,0,0,0-2.35,1l-.27-.43a4.31,4.31,0,0,0,1.82-3.71,1.77,1.77,0,0,0-.74-1.49,1.82,1.82,0,0,0-1.48.08,7.4,7.4,0,0,0-2.64,1.82,2.21,2.21,0,0,1,.5-.72,5.61,5.61,0,0,1,2-1.41,2.21,2.21,0,0,1,1.79-.13,2.17,2.17,0,0,1,1,1.82,4.72,4.72,0,0,1-2,4.16l-.27-.44a12.7,12.7,0,0,1,2.45-1.08,4.75,4.75,0,0,1,3,.05,3,3,0,0,1,1.9,2,3.71,3.71,0,0,1-.22,2.5,4,4,0,0,1-1.45,1.62,4.33,4.33,0,0,1-3,.61,2.88,2.88,0,0,1-.79-.26C267.36,238.47,267.27,238.42,267.28,238.4Z" style="fill:#263238"></path><path d="M277.2,237.53a15.56,15.56,0,0,1-.18-2.78c0-1.72-.07-4.1-.06-6.73v-1.53h.52a13.81,13.81,0,0,1-1.62,5.51,6.12,6.12,0,0,1-1.34,1.87c-.07,0,.44-.75,1-2a15,15,0,0,0,1.4-5.38l.52,0V228c0,2.63,0,5-.09,6.73A13.88,13.88,0,0,1,277.2,237.53Z" style="fill:#263238"></path><path d="M280.21,232.81a8.5,8.5,0,0,1,0-3.56,8.62,8.62,0,0,1,1-3.41,22.2,22.2,0,0,1-.51,3.49A22.3,22.3,0,0,1,280.21,232.81Z" style="fill:#263238"></path><path d="M284.55,232.28a11.35,11.35,0,0,1-4.83.2,11.37,11.37,0,0,1,4.83-.2Z" style="fill:#263238"></path><path d="M284.91,239.52a7.34,7.34,0,0,1-.39-2,42.55,42.55,0,0,1-.3-4.95,41.69,41.69,0,0,1,.26-5,7,7,0,0,1,.37-2c.15,0-.13,3.13-.11,7S285.06,239.51,284.91,239.52Z" style="fill:#263238"></path><path d="M288.76,236.28a4.05,4.05,0,0,1,1,0,6.22,6.22,0,0,0,2.6-.33,2.91,2.91,0,0,0,1.31-1.12,1.78,1.78,0,0,0,.11-1.81,2.47,2.47,0,0,0-1.74-1.15,5.59,5.59,0,0,0-2.41.21l-.37.1-2.4.64,2.22-1.13a11,11,0,0,0,2-1.33c.3-.25.58-.51.85-.78a3.13,3.13,0,0,0,.63-.81.71.71,0,0,0-.18-.75,1.33,1.33,0,0,0-.77-.34,4.53,4.53,0,0,0-1.71.19,5.43,5.43,0,0,0-2.18,1.29c-.44.42-.62.71-.66.69a2.18,2.18,0,0,1,.52-.83,5.12,5.12,0,0,1,2.21-1.49,4.73,4.73,0,0,1,1.86-.28,1.79,1.79,0,0,1,1.05.45,1.15,1.15,0,0,1,.3,1.23,3.09,3.09,0,0,1-.72,1,11.46,11.46,0,0,1-.87.83,11.33,11.33,0,0,1-2.12,1.41l-.19-.49.38-.1a6.17,6.17,0,0,1,2.63-.21,3,3,0,0,1,2.07,1.43,2.23,2.23,0,0,1-.17,2.28,3.2,3.2,0,0,1-1.54,1.22,5.67,5.67,0,0,1-2.75.19A3.45,3.45,0,0,1,288.76,236.28Z" style="fill:#263238"></path><path d="M299.12,241.23a18.17,18.17,0,0,1,.35-3c.28-1.87.71-4.45,1.21-7.29.25-1.41.5-2.76.72-4,.08-.32.08-.57,0-.62s-.42-.05-.69,0l-1.54.14a17.92,17.92,0,0,1-3.06.15,16.1,16.1,0,0,1,3-.52l1.53-.2a1.56,1.56,0,0,1,1,.08.71.71,0,0,1,.29.57,2.59,2.59,0,0,1-.05.51c-.22,1.25-.45,2.6-.69,4-.5,2.84-1,5.41-1.36,7.26A17.73,17.73,0,0,1,299.12,241.23Z" style="fill:#263238"></path><path d="M305.44,232.94a18.54,18.54,0,0,1-4.29.6,18.9,18.9,0,0,1-4.33.08,17.34,17.34,0,0,1,4.29-.6A17.61,17.61,0,0,1,305.44,232.94Z" style="fill:#263238"></path><path d="M314.8,234.35a16.65,16.65,0,0,1-2.49.88c-1.58.5-3.81,1.18-6.4,1.94l-.63.19.35-.56c.6-1,1.23-2,1.9-3.05l1.38-2.2a17.44,17.44,0,0,0,1.21-2.06,2,2,0,0,0,.06-1.9,1.7,1.7,0,0,0-1.47-.72,3.19,3.19,0,0,0-2.25,1.2,6.37,6.37,0,0,1-.68.76,3,3,0,0,1,.52-.89,4.64,4.64,0,0,1,.86-.87,2.77,2.77,0,0,1,1.55-.57,2.09,2.09,0,0,1,1.84.86,2.47,2.47,0,0,1,0,2.32,16.14,16.14,0,0,1-1.21,2.13L308,234c-.67,1.06-1.32,2.08-1.92,3l-.28-.38c2.6-.73,4.85-1.34,6.45-1.76A15.23,15.23,0,0,1,314.8,234.35Z" style="fill:#263238"></path><path d="M246.68,229.31a1.82,1.82,0,0,0-1.8,1.45c-.34,1.46,1,5.51,3.31,6.65a1.66,1.66,0,0,0,1.66-.58l0-.1-.78-1.81-1.07.38s-1.91-2-1.46-3.28c0,0,.78-.68.85-.62S246.68,229.31,246.68,229.31Z" style="fill:#263238"></path><path d="M250.23,234.58a5.47,5.47,0,0,0-.21-2.19c-.49-1.11-1.55-1.47-1.49-1.61s.31-.07.73.12a2.65,2.65,0,0,1,1.24,1.28,2.61,2.61,0,0,1,.12,1.78C250.49,234.4,250.28,234.61,250.23,234.58Z" style="fill:#263238"></path><path d="M251.62,235.65c-.08,0,.13-.44.26-1.11a4.25,4.25,0,0,0-.32-2.57,4.2,4.2,0,0,0-1.82-1.83c-.6-.32-1-.4-1-.49s.48-.11,1.18.15a3.89,3.89,0,0,1,2.34,4.83C252,235.34,251.66,235.68,251.62,235.65Z" style="fill:#263238"></path><rect x="236.38" y="187.15" width="6.03" height="8.85" style="fill:#fafafa"></rect><rect x="315.28" y="186.86" width="6.03" height="4.22" style="fill:#fafafa"></rect></g></svg>