<svg xmlns="http://www.w3.org/2000/svg" viewBox="0 0 750 500"><g id="freepik--Vehicle--inject-77"><rect x="116.49" y="330.53" width="444.07" height="44.38" style="fill:#FF725E"></rect><g style="opacity:0.4"><rect x="116.49" y="330.53" width="444.07" height="44.38"></rect></g><rect x="333.27" y="380.51" width="131.08" height="41.1" style="fill:#455a64"></rect><polygon points="241.67 361.92 241.67 416.25 286.43 416.25 304.37 390.25 631.18 390.25 631.18 361.92 241.67 361.92" style="fill:#263238"></polygon><path d="M238.88,189.88a3.34,3.34,0,0,0-3.46-3.15c-17.69.73-101.67,4.58-118.94,12.88-13.22,6.36-27.7,30.1-37.91,46.09-7.32,11.46-23.49,36.9-26.76,49.91-2.77,11-4.44,33.88-4.25,45.23l4.62,60.06h76.11l7.62-19.84a33.5,33.5,0,0,1,31.27-21.47h75.63V259.92Z" style="fill:#FF725E"></path><path d="M107.46,206.26c-10.48,10-21,27-28.89,39.44-6.78,10.61-21.14,33.2-25.83,46.82-.09.25-.16.49-.24.74,2.32-.64,5.89-1.95,7-4.15,1.67-3.33,3.81-14.74,30.27-57.81C97.81,218.17,105.65,210.49,107.46,206.26Z" style="fill:#455a64"></path><path d="M199.78,201.81c-19.46,1.11-61.65,4-75.13,8.58-17.56,6-37.27,52.49-38.2,54.53l-13.28,34a1.48,1.48,0,0,0,1.4,1.95H108.9a11,11,0,0,0,3.81-.68L203,266.53a10.44,10.44,0,0,0,6.79-9.78V211.28A9.48,9.48,0,0,0,199.78,201.81Z" style="fill:#263238"></path><path d="M77,297.53S89.72,269,94,259.65c6.46-14.12,21.55-43,31.74-46.11,9.37-2.81,36.31-6.23,74.23-8.4h.36a6.16,6.16,0,0,1,6.14,6.15v46.5a5.65,5.65,0,0,1-3.66,5.27l-66.71,8.23a18.57,18.57,0,0,0-13.25,8.24l-11.56,17.63a6.11,6.11,0,0,1-2.12.38Z" style="fill:#455a64"></path><path d="M133.68,271.8,111,297.06l12.55-83.87,3.14-1.08-6.18,62.13a1.83,1.83,0,0,0,2.5,1.87Z" style="fill:#263238"></path><path d="M46.07,346.67c-.08-1.09.29-2,.85-2l12.16-1.12c1-.1,1.93,1.79,2.05,4l.55,9.33c.09,1.5-.36,2.77-1,2.88l-12.4,2.14c-.56.1-1.1-.73-1.18-1.83Z" style="fill:#ebebeb"></path><rect x="46.06" y="390.26" width="87.62" height="35.13" style="fill:#263238"></rect><circle cx="190.35" cy="414.17" r="47.94" transform="translate(-15.78 7.62) rotate(-2.2)" style="fill:#263238"></circle><path d="M142.43,413.35a.53.53,0,0,1,0,.13,47.94,47.94,0,0,0,95.87,1.38s0-.08,0-.12Z" style="fill:#263238"></path><path d="M156.7,413.68a33.66,33.66,0,1,0,34.14-33.16A33.66,33.66,0,0,0,156.7,413.68Z" style="fill:#fafafa"></path><path d="M190.84,380.52a33.66,33.66,0,0,0-34.14,33.16l67.31,1A33.67,33.67,0,0,0,190.84,380.52Z" style="fill:#e0e0e0"></path><path d="M169.86,413.87a20.5,20.5,0,1,0,20.79-20.2A20.5,20.5,0,0,0,169.86,413.87Z" style="fill:#263238"></path><rect x="85.48" y="232.26" width="19.87" height="47.69" rx="7.98" style="fill:#263238"></rect><path d="M77.26,309.43h-1V259a9.08,9.08,0,0,1,9.07-9.07h2.4v1h-2.4A8.08,8.08,0,0,0,77.26,259Z" style="fill:#263238"></path><path d="M84.07,309.49l-2.78-47.15a6,6,0,0,1,5.93-6.29v1a4.94,4.94,0,0,0-4.93,5.23l2.78,47.16Z" style="fill:#263238"></path><rect x="73.74" y="304.89" width="13.48" height="15.61" style="fill:#263238"></rect><rect x="76.76" y="275.26" width="5.48" height="1" style="fill:#263238"></rect><path d="M128,203.16l1.19-.16,3.51-.41,13.6-1.57L197,195.25c2.7-.29,5.45-.65,8.3-.9a15.58,15.58,0,0,1,4.35.28,16.88,16.88,0,0,1,4.17,1.58,15.55,15.55,0,0,1,6.31,6.56,14.62,14.62,0,0,1,1.45,4.51,17.26,17.26,0,0,1,.21,2.4v2.41c0,12.91,0,26.77,0,41.46,0,29.38,0,62.06,0,97v.26H169.12a55.94,55.94,0,0,0-9,.43,34.93,34.93,0,0,0-27.64,22.07,27.25,27.25,0,0,0-1.09,3.27,28,28,0,0,0-.77,3.35l-.26,1.7-.12.85-.05.85-.08,1.71,0,.86v.1c.22-.22-.31.34-.27.28H63.05V386c0-15.07,0-29.6,0-43.48q0-10.41,0-20.33v-9.78c0-1.61,0-3.2,0-4.79a46.38,46.38,0,0,1,.34-4.73,47.45,47.45,0,0,1,5.66-17.22q4.13-7.77,8-15L91.23,244.1l11.51-21.57q1.26-2.35,2.42-4.55c.4-.72.75-1.45,1.17-2.13a21.14,21.14,0,0,1,1.35-1.92,28.38,28.38,0,0,1,6.06-5.63,30.55,30.55,0,0,1,10.37-4.51,26.51,26.51,0,0,1,3.87-.63l-1,.15c-.65.1-1.61.27-2.87.56a30.68,30.68,0,0,0-10.3,4.56,28.16,28.16,0,0,0-6,5.63,17.81,17.81,0,0,0-1.33,1.9c-.41.66-.76,1.4-1.16,2.13l-2.41,4.56L91.5,244.24c-4.28,8.06-9,16.95-14.1,26.59l-8,15a46.9,46.9,0,0,0-5.59,17.09,45.59,45.59,0,0,0-.33,4.69c0,1.57,0,3.18,0,4.78v9.78q0,9.91,0,20.33c0,13.88,0,28.41,0,43.48l-.25-.24h66.53c.07-.05-.48.48-.25.24v-.11l0-.86.09-1.74,0-.86.13-.86.26-1.73a28.36,28.36,0,0,1,.78-3.4,27.51,27.51,0,0,1,1.11-3.32,35.48,35.48,0,0,1,28.05-22.4,57.2,57.2,0,0,1,9-.43h52.43l-.26.25c0-34.9,0-67.58,0-97,0-14.69,0-28.55,0-41.46a28.63,28.63,0,0,0-.2-4.75,14.31,14.31,0,0,0-1.41-4.41,15,15,0,0,0-6.15-6.4,16,16,0,0,0-4.06-1.55,15.28,15.28,0,0,0-4.25-.29c-2.83.24-5.6.6-8.29.89l-50.69,5.61-13.61,1.49-3.51.37Z" style="fill:#263238"></path><path d="M205.83,313.68s.28,0,.78-.12a5.5,5.5,0,0,0,2.06-.82,5.21,5.21,0,0,0,2.09-2.72,5.78,5.78,0,0,0,.27-2.16,5.25,5.25,0,0,0-.61-2.32,5.18,5.18,0,0,0-4.5-2.75l-6.6,0-15.12,0a5.13,5.13,0,0,0-5.09,4.55,5.71,5.71,0,0,0,.63,3.45,5.13,5.13,0,0,0,2.5,2.22,7.8,7.8,0,0,0,3.26.4h3.2l5.75,0,8.33.08,2.27,0a4,4,0,0,1,.78.06,6.85,6.85,0,0,1-.78.05l-2.27,0-8.33.08-5.75,0h-3.2c-.56,0-1.1,0-1.69,0a6,6,0,0,1-1.75-.4,5.64,5.64,0,0,1-2.74-2.42,6.21,6.21,0,0,1-.7-3.75,5.63,5.63,0,0,1,5.58-5l15.12,0,6.6,0a5.55,5.55,0,0,1,5.44,5.49,6.11,6.11,0,0,1-.33,2.25,5.44,5.44,0,0,1-2.25,2.8,5.19,5.19,0,0,1-2.15.75A3.47,3.47,0,0,1,205.83,313.68Z" style="fill:#263238"></path><path d="M204,301.12a73.2,73.2,0,0,1-8.57.25,73.3,73.3,0,0,1-8.58-.25,71.89,71.89,0,0,1,8.58-.26A71.79,71.79,0,0,1,204,301.12Z" style="fill:#fff"></path><path d="M137.67,425.68l-8-.58c2.09-28.65,5.15-45.79,9.36-52.4,8.08-12.7,16.11-15,25-16.51,8.28-1.41,16.63-1.08,24.71-.75l2,.08c16.68.65,51.62.07,52,.07l.13,8c-.35,0-35.51.59-52.41-.07l-2-.08c-7.67-.3-15.59-.63-23.05.65-7.95,1.35-13.24,2.9-19.62,12.92C143.86,380,140.24,390.39,137.67,425.68Z" style="fill:#263238"></path><rect x="247" y="99.32" width="393.98" height="262.32" style="fill:#FF725E"></rect><path d="M636.26,356.45c0-1.69-.08-97.9-.21-251.2l.21.2-385,.06h0l.26-.26c0,89.29,0,174.28,0,251.2l-.24-.24,385,.24-385,.24H251v-.24c0-76.92,0-161.91,0-251.2V105h.29l385,.05h.21v.21C636.34,258.55,636.26,354.77,636.26,356.45Z" style="fill:#263238"></path><g style="opacity:0.5"><polygon points="302.86 240.04 306.58 315.07 598.77 254.29 593.6 176.08 302.86 240.04"></polygon></g><path d="M325,292l2-7a20.33,20.33,0,0,0,12.41,1.18c4.47-1,7-3.12,6.41-5.69-1.21-5.63-18,1.13-20.43-10.09-1.55-7.24,3.78-13.28,13.54-15.37,4.73-1,9.33-.9,12.82.4L350,262.3a17.55,17.55,0,0,0-10.14-.67c-4.73,1-7.11,3.42-6.57,5.94,1.2,5.79,18.05-1,20.38,9.83,1.56,7.3-3.87,13.36-13.68,15.46C334.27,294.1,328.47,293.55,325,292Z" style="fill:#fff"></path><path d="M391.48,244.35l.51,36.72-8.15,1.75-.21-14.95-15.95,3.42.22,15L359.69,288l-.51-36.73,8.2-1.76.2,14.43,15.95-3.42-.2-14.43Z" style="fill:#fff"></path><path d="M399.82,242.56,408,240.8l.51,36.72-8.2,1.76Z" style="fill:#fff"></path><path d="M446.7,244c1.92,8.95-3.47,16-14,18.21l-7.85,1.68L425,274l-8.2,1.76L416.32,239,430.56,236C439.36,234.07,445.22,237.08,446.7,244Zm-8.1,2.47c-.73-3.42-3.49-4.51-7.62-3.62l-6.39,1.37.16,12.75,6.89-1.48C437,254.31,439.6,251.12,438.6,246.44Z" style="fill:#fff"></path><path d="M483,236.17c1.92,9-3.47,16-14,18.21l-7.84,1.69.17,10.11-8.2,1.76-.52-36.72,14.24-3.06C475.68,226.27,481.54,229.28,483,236.17Zm-8.1,2.48c-.73-3.43-3.5-4.52-7.62-3.63l-6.39,1.37.16,12.76,6.89-1.48C473.34,246.51,475.92,243.32,474.92,238.65Z" style="fill:#fff"></path><path d="M489,223.42l8.2-1.76.52,36.73-8.2,1.76Z" style="fill:#fff"></path><path d="M537.76,213l.52,36.72-6.7,1.44L513.73,231.9l.3,23-8,1.73-.52-36.73,6.74-1.45,17.87,19.27-.36-23Z" style="fill:#fff"></path><path d="M570.19,223.83l7.45-1.6.19,15.11a22.91,22.91,0,0,1-12.56,7.17c-10.67,2.29-18.74-2.45-20.69-11.55-2.58-12,4.27-23,17.6-25.88,6.74-1.45,12.13-.35,16,3l-4.82,6c-3-2.31-6.12-2.79-10-1.95-8.25,1.77-12.26,8.84-10.6,16.59,1.13,5.28,5.42,8.1,12.11,6.66a13.88,13.88,0,0,0,5.57-2.51Z" style="fill:#fff"></path><polygon points="361.11 170.62 361.11 236.15 527.63 199.53 527.57 134.76 361.11 170.62" style="fill:#FF725E"></polygon><g style="opacity:0.30000000000000004"><polygon points="361.11 170.62 361.11 236.15 527.63 199.53 527.57 134.76 361.11 170.62"></polygon></g><path d="M385.53,186.92l.37,14.42,18.22-4.14.07,3.36L386,204.7l.42,15.58-3.66.83-.95-36.72,24.08-5.47.08,3.36Z" style="fill:#fff"></path><path d="M433.26,197.29l9.29,10.23-4,.91-8.86-9.75c-.54.18-1.19.32-1.8.46l-10,2.27.32,11.64-3.71.84-.95-36.71,12.64-2.88c8-1.81,13.38.82,14.8,7.09C442.63,188.61,439.68,194.19,433.26,197.29Zm4.1-14.71c-1.05-4.61-4.87-6.33-10.69-5l-9.33,2.12.42,18.37,9.49-2.15C435.17,194.11,438.93,189.51,437.36,182.58Z" style="fill:#fff"></path><path d="M453.56,171.46l.33,13.07,18.21-4.14.12,3.3L454,187.82l.36,13.64,21.12-4.8.08,3.36-24.79,5.63-.95-36.71,24.08-5.48.08,3.36Z" style="fill:#fff"></path><path d="M487.12,163.84l.33,13.06,18.22-4.14.11,3.3-18.21,4.14.35,13.64,21.13-4.8.07,3.36L484.34,198l-1-36.72,24.09-5.47.08,3.36Z" style="fill:#fff"></path><polygon points="546.72 170.62 605.69 156.81 603.36 150.53 546.72 170.62" style="fill:#fafafa"></polygon><polygon points="282.67 214.75 323.67 205.15 322.05 200.79 282.67 214.75" style="fill:#fafafa"></polygon><polygon points="423.04 313.54 482.01 299.72 479.69 293.45 423.04 313.54" style="fill:#fafafa"></polygon><path d="M501.21,139.21c0,.14-31.48,7.67-70.37,16.81s-70.46,16.45-70.5,16.31,31.47-7.67,70.38-16.81S501.18,139.07,501.21,139.21Z" style="fill:#fafafa"></path><path d="M360.67,229.57c0,.14-13.5,3-30.22,6.36s-30.29,6-30.32,5.86,13.5-3,30.22-6.37S360.64,229.43,360.67,229.57Z" style="fill:#fafafa"></path><path d="M361.2,223.64a1.84,1.84,0,0,1-.06-.53c0-.41,0-.91-.05-1.51,0-1.39,0-3.27-.08-5.56,0-4.77-.08-11.22-.12-18.35s-.14-13.59-.19-18.35c0-2.29-.06-4.17-.08-5.56v-1.52a1.76,1.76,0,0,1,0-.52,2,2,0,0,1,.07.52c0,.41.06.9.1,1.51.08,1.31.16,3.21.24,5.56.17,4.69.3,11.18.35,18.35s0,13.66,0,18.35c0,2.3-.06,4.18-.08,5.57,0,.6,0,1.1-.05,1.51A3.13,3.13,0,0,1,361.2,223.64Z" style="fill:#fafafa"></path><path d="M191,223.54s-.12.12-.37.31l-1.1.79c-1,.69-2.37,1.65-4.11,2.84-3.49,2.36-8.35,5.58-13.77,9.05s-10.37,6.54-14,8.73c-1.8,1.09-3.27,2-4.29,2.56l-1.18.66a2,2,0,0,1-.43.21s.12-.12.37-.29l1.13-.76,4.21-2.69,13.89-8.86,13.84-8.92,4.21-2.69,1.16-.72A2.28,2.28,0,0,1,191,223.54Z" style="fill:#fafafa"></path><path d="M173.91,228.06s-.12.12-.37.31l-1.1.79c-1,.68-2.37,1.65-4.12,2.83-3.49,2.37-8.35,5.58-13.76,9s-10.37,6.55-14,8.74c-1.8,1.09-3.27,2-4.29,2.55l-1.18.67a1.54,1.54,0,0,1-.43.2,2.1,2.1,0,0,1,.37-.29l1.13-.75,4.2-2.7,13.9-8.85,13.84-8.92,4.21-2.7,1.15-.71A1.83,1.83,0,0,1,173.91,228.06Z" style="fill:#fafafa"></path><path d="M89.72,257.17a2.72,2.72,0,0,1-.31-.88c-.16-.57-.38-1.41-.63-2.45a35.68,35.68,0,0,1-1-8.3,18,18,0,0,1,1.9-8.14,11.78,11.78,0,0,1,1.42-2.12,3,3,0,0,1,.66-.65A32.25,32.25,0,0,0,90,237.57a19.15,19.15,0,0,0-1.71,8,42.74,42.74,0,0,0,.89,8.22A27.47,27.47,0,0,1,89.72,257.17Z" style="fill:#fafafa"></path><path d="M49,328.07A5.29,5.29,0,0,1,49,327c0-.72,0-1.76.06-3,.08-2.57.27-6.12.58-10s.68-7.44,1-10c.16-1.28.3-2.31.41-3a5.23,5.23,0,0,1,.23-1.09,4.18,4.18,0,0,1,0,1.12l-.26,3c-.22,2.68-.52,6.15-.85,10s-.53,7.31-.72,10c-.09,1.2-.17,2.21-.23,3A4.34,4.34,0,0,1,49,328.07Z" style="fill:#fafafa"></path><path d="M158.59,347.48c0,.11-1.93.38-4.92,1.35a38.89,38.89,0,0,0-5.11,2.07,38.49,38.49,0,0,0-10.82,8,38.69,38.69,0,0,0-3.51,4.25c-1.81,2.57-2.66,4.34-2.75,4.29a7.71,7.71,0,0,1,.56-1.26,13,13,0,0,1,.76-1.42c.32-.54.67-1.17,1.13-1.82a35,35,0,0,1,3.46-4.37A40.53,40.53,0,0,1,142.5,354a38.76,38.76,0,0,1,5.86-3.51,34.64,34.64,0,0,1,5.2-2c.75-.25,1.46-.39,2.07-.54a15.73,15.73,0,0,1,1.59-.3A7.2,7.2,0,0,1,158.59,347.48Z" style="fill:#fafafa"></path><path d="M257.07,287.11a2.43,2.43,0,0,1,0-.43q0-.46,0-1.26c0-1.14,0-2.77-.07-4.85-.06-4.24-.14-10.33-.25-17.84-.27-15.09-.64-35.88-1.05-58.85s-.76-43.8-.9-58.86c-.07-7.53-.09-13.63-.08-17.84,0-2.09,0-3.72,0-4.85l0-1.26c0-.29,0-.43,0-.43a2.3,2.3,0,0,1,0,.43q0,.45,0,1.26c0,1.13,0,2.76.07,4.85.06,4.24.14,10.32.25,17.83.27,15.09.64,35.88,1.05,58.86s.77,43.79.9,58.85c.07,7.54.1,13.63.09,17.84,0,2.09,0,3.72,0,4.86,0,.53,0,.95,0,1.26A3.62,3.62,0,0,1,257.07,287.11Z" style="fill:#fafafa"></path><circle cx="544.45" cy="414.17" r="47.94" transform="translate(-16.08 22.04) rotate(-2.29)" style="fill:#263238"></circle><path d="M496.53,413.35s0,.09,0,.13a47.93,47.93,0,1,0,95.86,1.38v-.12Z" style="fill:#263238"></path><path d="M510.8,413.68a33.65,33.65,0,1,0,34.14-33.16A33.66,33.66,0,0,0,510.8,413.68Z" style="fill:#fafafa"></path><path d="M544.94,380.52a33.65,33.65,0,0,0-34.14,33.16l67.3,1A33.65,33.65,0,0,0,544.94,380.52Z" style="fill:#e0e0e0"></path><path d="M524,413.87a20.5,20.5,0,1,0,20.79-20.2A20.5,20.5,0,0,0,524,413.87Z" style="fill:#263238"></path><path d="M481.44,427.3s-7.3-68,63.16-68c65,0,63.56,58.48,62.94,67.53H597.35s5.19-57.64-52.75-57.64S491.7,428,491.7,428,487.42,427.79,481.44,427.3Z" style="fill:#455a64"></path><path d="M519.18,366.34a2.32,2.32,0,0,1-.55.2c-.37.13-.92.26-1.6.5a48.72,48.72,0,0,0-5.73,2.23,45.84,45.84,0,0,0-25.22,30,49,49,0,0,0-1.21,6c-.11.72-.15,1.28-.21,1.66a3.52,3.52,0,0,1-.1.58,2.34,2.34,0,0,1,0-.58c0-.39,0-1,.12-1.68a40.78,40.78,0,0,1,1.06-6.1,44.79,44.79,0,0,1,25.42-30.27,42.1,42.1,0,0,1,5.82-2.1c.7-.2,1.26-.31,1.63-.4A2.56,2.56,0,0,1,519.18,366.34Z" style="fill:#fafafa"></path></g></svg>